<svg width="65" height="64" viewBox="0 0 65 64" fill="none" xmlns="http://www.w3.org/2000/svg">
<path d="M54.1533 12.0001H50.1533C49.6229 12.0001 49.1142 12.2108 48.7391 12.5859C48.364 12.9609 48.1533 13.4697 48.1533 14.0001V16.0001H28.9101L26.4717 8.33209C25.9487 6.76648 24.8362 5.46633 23.3702 4.70766C21.9042 3.94898 20.2003 3.79152 18.6201 4.26869C17.8199 4.50145 17.0746 4.89255 16.4284 5.41877C15.7823 5.94499 15.2483 6.59563 14.8583 7.33209C14.4798 8.04111 14.2475 8.81896 14.1754 9.61946C14.1032 10.42 14.1926 11.2268 14.4383 11.9921L15.7133 16.0001H6.15332C5.62289 16.0001 5.11418 16.2108 4.73911 16.5859C4.36403 16.9609 4.15332 17.4697 4.15332 18.0001V58.0001C4.15332 58.5305 4.36403 59.0392 4.73911 59.4143C5.11418 59.7894 5.62289 60.0001 6.15332 60.0001H54.1533C55.7441 59.9983 57.2692 59.3656 58.394 58.2408C59.5189 57.116 60.1516 55.5909 60.1533 54.0001V18.0001C60.1516 16.4093 59.5189 14.8842 58.394 13.7594C57.2692 12.6345 55.7441 12.0018 54.1533 12.0001ZM29.9873 32.5909L28.4873 35.3331L25.5873 33.8467L20.1333 16.6977L24.5187 15.3921L29.9873 32.5909ZM18.3933 9.20329C18.5361 8.93783 18.7306 8.70371 18.9655 8.51477C19.2003 8.32583 19.4707 8.18591 19.7605 8.10329C20.3363 7.91908 20.9613 7.96672 21.5025 8.23607C22.0438 8.50543 22.4587 8.97526 22.6589 9.54569L23.3061 11.5801L18.9207 12.8857L18.2509 10.7801C18.1676 10.5212 18.1373 10.2481 18.1617 9.97721C18.1862 9.70631 18.265 9.4431 18.3933 9.20329ZM54.1533 56.0001H8.15332V20.0001H16.9849L22.0263 35.8537C22.1065 36.1052 22.2356 36.3384 22.4062 36.5398C22.5769 36.7413 22.7856 36.907 23.0205 37.0275L28.3955 39.7801C28.6771 39.9248 28.9891 40.0002 29.3057 40.0001H35.1533C35.949 40.0001 36.712 40.3162 37.2746 40.8788C37.8372 41.4414 38.1533 42.2044 38.1533 43.0001C38.1533 43.7957 37.8372 44.5588 37.2746 45.1214C36.712 45.684 35.949 46.0001 35.1533 46.0001H14.1533V50.0001H35.1533C37.0098 50.0001 38.7903 49.2626 40.1031 47.9498C41.4158 46.6371 42.1533 44.8566 42.1533 43.0001C42.1533 41.1436 41.4158 39.3631 40.1031 38.0503C38.7903 36.7376 37.0098 36.0001 35.1533 36.0001H32.6813L33.9073 33.7601C34.0377 33.523 34.1185 33.2619 34.1447 32.9926C34.1709 32.7233 34.142 32.4515 34.0597 32.1937L30.1821 20.0001H48.1533V50.0001C48.1533 50.5305 48.364 51.0392 48.7391 51.4143C49.1142 51.7894 49.6229 52.0001 50.1533 52.0001H54.1533C54.6838 52.0001 55.1925 52.2108 55.5675 52.5859C55.9426 52.9609 56.1533 53.4697 56.1533 54.0001C56.1533 54.5305 55.9426 55.0392 55.5675 55.4143C55.1925 55.7894 54.6838 56.0001 54.1533 56.0001ZM56.1533 48.3429C55.5111 48.1154 54.8347 47.9995 54.1533 48.0001H52.1533V16.0001H54.1533C54.6836 16.0006 55.192 16.2115 55.5669 16.5865C55.9419 16.9614 56.1528 17.4698 56.1533 18.0001V48.3429Z" fill="#FF872E"/>
</svg>
