<svg width="65" height="64" viewBox="0 0 65 64" fill="none" xmlns="http://www.w3.org/2000/svg">
<path d="M56.3186 26C55.0807 26.0035 53.8742 26.3898 52.8645 27.1059C51.8548 27.822 51.0912 28.8329 50.6786 30H48.1786C47.7322 26.48 46.1284 23.2082 43.6194 20.6992C41.1105 18.1902 37.8387 16.5864 34.3186 16.14V13.64C35.653 13.1682 36.7777 12.2399 37.4939 11.019C38.21 9.79823 38.4715 8.36353 38.2322 6.96854C37.9929 5.57355 37.2681 4.30808 36.1859 3.3958C35.1038 2.48351 33.734 1.98315 32.3186 1.98315C30.9032 1.98315 29.5334 2.48351 28.4513 3.3958C27.3692 4.30808 26.6444 5.57355 26.405 6.96854C26.1657 8.36353 26.4272 9.79823 27.1433 11.019C27.8595 12.2399 28.9842 13.1682 30.3186 13.64V16.14C26.7986 16.5864 23.5268 18.1902 21.0178 20.6992C18.5088 23.2082 16.905 26.48 16.4586 30H13.9586C13.4868 28.6656 12.5585 27.5409 11.3377 26.8247C10.1168 26.1086 8.68214 25.8471 7.28715 26.0864C5.89216 26.3258 4.62669 27.0506 3.7144 28.1327C2.80212 29.2148 2.30176 30.5846 2.30176 32C2.30176 33.4154 2.80212 34.7852 3.7144 35.8673C4.62669 36.9495 5.89216 37.6743 7.28715 37.9136C8.68214 38.1529 10.1168 37.8914 11.3377 37.1753C12.5585 36.4591 13.4868 35.3344 13.9586 34H16.4586C16.7589 36.3622 17.5826 38.6276 18.8698 40.6309C20.1569 42.6343 21.8749 44.3251 23.8986 45.58L18.8786 50.62C17.7607 50.1102 16.5159 49.9464 15.3042 50.1495C14.0924 50.3526 12.9691 50.9135 12.0786 51.76C11.2967 52.535 10.7431 53.5102 10.4784 54.5788C10.2136 55.6475 10.2481 56.7683 10.5778 57.8187C10.9076 58.8691 11.52 59.8085 12.348 60.534C13.176 61.2596 14.1876 61.7434 15.2722 61.9324C16.3568 62.1214 17.4725 62.0084 18.4971 61.6057C19.5217 61.2029 20.4158 60.5261 21.0814 59.6492C21.7471 58.7723 22.1586 57.7291 22.271 56.634C22.3834 55.5388 22.1923 54.4338 21.7186 53.44L27.7186 47.44C29.217 47.847 30.7663 48.0356 32.3186 48C33.8769 47.9986 35.4266 47.7695 36.9186 47.32L43.0386 53.44C42.5649 54.4338 42.3738 55.5388 42.4862 56.634C42.5986 57.7291 43.0102 58.7723 43.6758 59.6492C44.3414 60.5261 45.2355 61.2029 46.2601 61.6057C47.2848 62.0084 48.4004 62.1214 49.485 61.9324C50.5696 61.7434 51.5812 61.2596 52.4092 60.534C53.2372 59.8085 53.8496 58.8691 54.1794 57.8187C54.5092 56.7683 54.5436 55.6475 54.2789 54.5788C54.0142 53.5102 53.4605 52.535 52.6786 51.76C51.8006 50.8863 50.6737 50.3058 49.4526 50.0981C48.2315 49.8905 46.9761 50.0658 45.8586 50.6L40.7986 45.54C42.8063 44.2827 44.5098 42.5954 45.786 40.5997C47.0623 38.6041 47.8795 36.3499 48.1786 34H50.6786C51.0455 35.0378 51.6908 35.9546 52.5439 36.6502C53.397 37.3457 54.425 37.7932 55.5153 37.9437C56.6057 38.0941 57.7165 37.9417 58.726 37.5032C59.7356 37.0646 60.6051 36.3568 61.2393 35.4572C61.8735 34.5576 62.2481 33.5008 62.3219 32.4026C62.3958 31.3044 62.1661 30.207 61.6581 29.2306C61.15 28.2541 60.3832 27.4362 59.4414 26.8665C58.4997 26.2967 57.4193 25.9969 56.3186 26ZM17.7386 57.42C17.5527 57.6075 17.3315 57.7563 17.0878 57.8578C16.844 57.9593 16.5826 58.0116 16.3186 58.0116C16.0546 58.0116 15.7932 57.9593 15.5495 57.8578C15.3057 57.7563 15.0845 57.6075 14.8986 57.42C14.7112 57.2341 14.5624 57.0129 14.4608 56.7692C14.3593 56.5254 14.307 56.264 14.307 56C14.307 55.736 14.3593 55.4746 14.4608 55.2309C14.5624 54.9871 14.7112 54.7659 14.8986 54.58C15.0845 54.3926 15.3057 54.2438 15.5495 54.1422C15.7932 54.0407 16.0546 53.9884 16.3186 53.9884C16.5826 53.9884 16.844 54.0407 17.0878 54.1422C17.3315 54.2438 17.5527 54.3926 17.7386 54.58C17.9261 54.7659 18.0749 54.9871 18.1764 55.2309C18.2779 55.4746 18.3302 55.736 18.3302 56C18.3302 56.264 18.2779 56.5254 18.1764 56.7692C18.0749 57.0129 17.9261 57.2341 17.7386 57.42ZM48.4386 54C48.9012 54.0027 49.3485 54.1656 49.7044 54.461C50.0603 54.7565 50.3029 55.1662 50.3907 55.6203C50.4785 56.0745 50.4062 56.545 50.186 56.9518C49.9659 57.3586 49.6115 57.6766 49.1833 57.8515C48.7551 58.0264 48.2795 58.0475 47.8375 57.9111C47.3955 57.7747 47.0144 57.4894 46.7591 57.1036C46.5039 56.7179 46.3902 56.2555 46.4375 55.7954C46.4849 55.3353 46.6902 54.9058 47.0186 54.58C47.2055 54.3946 47.4271 54.248 47.6708 54.1485C47.9145 54.0489 48.1754 53.9985 48.4386 54ZM32.3186 6.00001C32.7142 6.00001 33.1009 6.11731 33.4298 6.33707C33.7586 6.55683 34.015 6.86919 34.1664 7.23464C34.3177 7.60009 34.3574 8.00223 34.2802 8.39019C34.203 8.77815 34.0125 9.13452 33.7328 9.41422C33.4531 9.69393 33.0968 9.88441 32.7088 9.96158C32.3208 10.0387 31.9187 9.99914 31.5532 9.84777C31.1878 9.69639 30.8754 9.44005 30.6557 9.11115C30.4359 8.78225 30.3186 8.39557 30.3186 8.00001C30.3186 7.46958 30.5293 6.96087 30.9044 6.58579C31.2795 6.21072 31.7882 6.00001 32.3186 6.00001ZM32.3186 20C35.5012 20 38.5535 21.2643 40.8039 23.5147C43.0543 25.7652 44.3186 28.8174 44.3186 32C44.3189 33.0199 44.1844 34.0353 43.9186 35.02C42.4814 33.5083 40.7625 32.2921 38.8586 31.44C39.2631 30.3801 39.4039 29.2377 39.2689 28.1113C39.1339 26.9849 38.7271 25.9081 38.0836 24.9738C37.4401 24.0395 36.5791 23.2755 35.5749 22.7478C34.5706 22.2201 33.4531 21.9443 32.3186 21.9443C31.1841 21.9443 30.0666 22.2201 29.0624 22.7478C28.0581 23.2755 27.1971 24.0395 26.5536 24.9738C25.9101 25.9081 25.5034 26.9849 25.3684 28.1113C25.2333 29.2377 25.3741 30.3801 25.7786 31.44C23.8747 32.2921 22.1558 33.5083 20.7186 35.02C20.4529 34.0353 20.3184 33.0199 20.3186 32C20.3186 28.8174 21.5829 25.7652 23.8333 23.5147C26.0838 21.2643 29.136 20 32.3186 20ZM35.3186 29C35.3186 29.5934 35.1427 30.1734 34.813 30.6667C34.4834 31.1601 34.0148 31.5446 33.4667 31.7716C32.9185 31.9987 32.3153 32.0581 31.7333 31.9424C31.1514 31.8266 30.6168 31.5409 30.1973 31.1213C29.7777 30.7018 29.492 30.1672 29.3763 29.5853C29.2605 29.0033 29.3199 28.4001 29.547 27.852C29.774 27.3038 30.1586 26.8352 30.6519 26.5056C31.1452 26.176 31.7253 26 32.3186 26C33.1143 26 33.8773 26.3161 34.4399 26.8787C35.0025 27.4413 35.3186 28.2044 35.3186 29ZM8.31861 34C7.92305 34 7.53637 33.8827 7.20747 33.6629C6.87857 33.4432 6.62223 33.1308 6.47085 32.7654C6.31948 32.3999 6.27987 31.9978 6.35704 31.6098C6.43421 31.2219 6.62469 30.8655 6.9044 30.5858C7.1841 30.3061 7.54047 30.1156 7.92843 30.0384C8.31639 29.9613 8.71853 30.0009 9.08398 30.1522C9.44943 30.3036 9.76179 30.56 9.98155 30.8889C10.2013 31.2178 10.3186 31.6044 10.3186 32C10.3186 32.5304 10.1079 33.0392 9.73283 33.4142C9.35775 33.7893 8.84905 34 8.31861 34ZM28.3186 43.32C28.0767 43.1636 27.8038 43.0612 27.5186 43.02C25.5173 42.1694 23.7878 40.7858 22.5186 39.02C23.9647 37.0252 25.9897 35.5239 28.3186 34.72C29.4902 35.5428 30.887 35.9843 32.3186 35.9843C33.7502 35.9843 35.147 35.5428 36.3186 34.72C38.6083 35.5364 40.596 37.0289 42.0186 39C40.7231 40.773 38.966 42.1566 36.9386 43C36.7725 43.0422 36.6115 43.1026 36.4586 43.18C35.1379 43.6958 33.7362 43.9734 32.3186 44C30.9557 44.0097 29.6017 43.7795 28.3186 43.32ZM56.3186 34C55.923 34 55.5364 33.8827 55.2075 33.6629C54.8786 33.4432 54.6222 33.1308 54.4709 32.7654C54.3195 32.3999 54.2799 31.9978 54.357 31.6098C54.4342 31.2219 54.6247 30.8655 54.9044 30.5858C55.1841 30.3061 55.5405 30.1156 55.9284 30.0384C56.3164 29.9613 56.7185 30.0009 57.084 30.1522C57.4494 30.3036 57.7618 30.56 57.9816 30.8889C58.2013 31.2178 58.3186 31.6044 58.3186 32C58.3186 32.5304 58.1079 33.0392 57.7328 33.4142C57.3578 33.7893 56.849 34 56.3186 34Z" fill="#1BCFF6"/>
</svg>
