<svg width="65" height="64" viewBox="0 0 65 64" fill="none" xmlns="http://www.w3.org/2000/svg">
<path fill-rule="evenodd" clip-rule="evenodd" d="M58.4844 12C58.4844 8.688 55.7964 6 52.4844 6H12.4844C9.17237 6 6.48438 8.688 6.48438 12V52C6.48438 55.312 9.17237 58 12.4844 58H52.4844C55.7964 58 58.4844 55.312 58.4844 52V12ZM54.4844 12V52C54.4844 53.104 53.5884 54 52.4844 54H12.4844C11.3804 54 10.4844 53.104 10.4844 52V12C10.4844 10.896 11.3804 10 12.4844 10H52.4844C53.5884 10 54.4844 10.896 54.4844 12Z" fill="#515DEF"/>
<path fill-rule="evenodd" clip-rule="evenodd" d="M30.4844 31C30.4844 28.24 28.2444 26 25.4844 26H19.4844C16.7244 26 14.4844 28.24 14.4844 31V45C14.4844 47.76 16.7244 50 19.4844 50H25.4844C28.2444 50 30.4844 47.76 30.4844 45V31ZM26.4844 31V45C26.4844 45.552 26.0364 46 25.4844 46H19.4844C18.9324 46 18.4844 45.552 18.4844 45V31C18.4844 30.448 18.9324 30 19.4844 30H25.4844C26.0364 30 26.4844 30.448 26.4844 31ZM36.4844 32H48.4844C49.5884 32 50.4844 31.104 50.4844 30C50.4844 28.896 49.5884 28 48.4844 28H36.4844C35.3804 28 34.4844 28.896 34.4844 30C34.4844 31.104 35.3804 32 36.4844 32ZM36.4844 40H48.4844C49.5884 40 50.4844 39.104 50.4844 38C50.4844 36.896 49.5884 36 48.4844 36H36.4844C35.3804 36 34.4844 36.896 34.4844 38C34.4844 39.104 35.3804 40 36.4844 40ZM36.4844 48H48.4844C49.5884 48 50.4844 47.104 50.4844 46C50.4844 44.896 49.5884 44 48.4844 44H36.4844C35.3804 44 34.4844 44.896 34.4844 46C34.4844 47.104 35.3804 48 36.4844 48ZM8.48438 22H56.4844C57.5884 22 58.4844 21.104 58.4844 20C58.4844 18.896 57.5884 18 56.4844 18H8.48438C7.38038 18 6.48438 18.896 6.48438 20C6.48438 21.104 7.38038 22 8.48438 22Z" fill="#515DEF"/>
<path d="M16.4844 16C17.5889 16 18.4844 15.1046 18.4844 14C18.4844 12.8954 17.5889 12 16.4844 12C15.3798 12 14.4844 12.8954 14.4844 14C14.4844 15.1046 15.3798 16 16.4844 16Z" fill="#515DEF"/>
<path d="M22.4844 16C23.5889 16 24.4844 15.1046 24.4844 14C24.4844 12.8954 23.5889 12 22.4844 12C21.3798 12 20.4844 12.8954 20.4844 14C20.4844 15.1046 21.3798 16 22.4844 16Z" fill="#515DEF"/>
<path d="M28.4844 16C29.5889 16 30.4844 15.1046 30.4844 14C30.4844 12.8954 29.5889 12 28.4844 12C27.3798 12 26.4844 12.8954 26.4844 14C26.4844 15.1046 27.3798 16 28.4844 16Z" fill="#515DEF"/>
</svg>
