<svg width="536" height="320" viewBox="0 0 536 320" fill="none" xmlns="http://www.w3.org/2000/svg">
<path d="M459.86 47.76C459.86 55.22 457.76 62.18 454.11 68.1C453.08 69.77 451.93 71.36 450.67 72.84C447.82 76.2 444.42 79.0699 440.59 81.2999C437.55 83.0799 434.25 84.45 430.76 85.35C427.65 86.15 424.39 86.58 421.03 86.58H393.4V8.91992H421.03C422.21 8.91992 423.38 8.96996 424.53 9.07996C426.66 9.26996 428.74 9.63002 430.76 10.15C434.25 11.05 437.55 12.43 440.59 14.2C444.41 16.43 447.82 19.2999 450.67 22.6599C451.93 24.1499 453.08 25.73 454.11 27.4C457.75 33.31 459.86 40.28 459.86 47.74V47.76Z" fill="#D3EBFA"/>
<path d="M410.851 9.08984H400.771V86.5898H410.851V9.08984Z" fill="#C3E6FA"/>
<path d="M394.02 8.92969V86.5897H390.73C388.41 86.5897 386.14 86.3898 383.94 85.9998V9.52979C385.02 9.33979 386.12 9.09976 387.23 8.99976L394.01 8.9397L394.02 8.92969Z" fill="#B8DEF5"/>
<path d="M430.761 10.1598V85.3599C427.651 86.1599 424.391 86.5898 421.031 86.5898H420.681V9.08984H424.531C426.661 9.27984 428.741 9.63979 430.761 10.1598Z" fill="#C3E6FA"/>
<path d="M450.671 22.6799V72.84C447.821 76.2 444.421 79.0699 440.591 81.2999V14.21C444.411 16.44 447.821 19.3099 450.671 22.6699V22.6799Z" fill="#C3E6FA"/>
<path d="M454.11 27.4297C457.75 33.3397 459.86 40.3098 459.86 47.7698C459.86 55.2298 457.76 62.1897 454.11 68.1097V27.4297Z" fill="#C3E6FA"/>
<path d="M359.62 108.35C363.57 110.45 367.91 112.36 372.71 114.05H343.63V97.2598C348.4 101.42 353.64 105.17 359.62 108.35Z" fill="#C3E6FA"/>
<path d="M383.94 9.53003V86C375.94 84.59 368.78 80.73 363.27 75.22C356.24 68.19 351.9 58.49 351.9 47.76C351.9 28.63 365.73 12.73 383.94 9.52002V9.53003Z" fill="#C3E6FA"/>
<path d="M233.88 5.18994V114.05H124.01V7.65991C127.48 6.68991 131.04 5.81001 134.67 5.01001C140.46 3.74001 146.46 2.70002 152.67 1.90002C162.36 0.650024 172.56 0 183.3 0C190.35 0 196.99 0.239941 203.25 0.689941C207.49 0.999941 211.55 1.40002 215.46 1.90002C222.05 2.74002 228.17 3.84994 233.89 5.18994H233.88Z" fill="#C3E6FA"/>
<path d="M215.45 1.90002H152.66C162.35 0.650024 172.55 0 183.29 0C190.34 0 196.98 0.239941 203.24 0.689941C207.48 0.999941 211.54 1.40002 215.45 1.90002Z" fill="#ACDEFA"/>
<path d="M226.01 10.2002H131.87V18.3702H226.01V10.2002Z" fill="#ACDEFA"/>
<path d="M226.01 26.6602H131.87V34.8302H226.01V26.6602Z" fill="#ACDEFA"/>
<path d="M226.01 43.1299H131.87V51.2998H226.01V43.1299Z" fill="#ACDEFA"/>
<path d="M226.01 59.6001H131.87V67.7701H226.01V59.6001Z" fill="#ACDEFA"/>
<path d="M226.01 76.0698H131.87V84.2399H226.01V76.0698Z" fill="#ACDEFA"/>
<path d="M226.01 92.54H131.87V100.71H226.01V92.54Z" fill="#ACDEFA"/>
<path d="M333.51 87.15L330.44 114.05H203.24V0.689941C207.48 0.999941 211.54 1.40002 215.45 1.90002C222.04 2.74002 228.16 3.84994 233.88 5.18994C239.15 6.41994 244.06 7.85996 248.66 9.45996C256.5 12.19 263.44 15.4299 269.65 19.0499C274.68 21.9799 279.24 25.15 283.43 28.51C287.25 31.57 290.75 34.78 294.03 38.1C297.08 41.18 299.92 44.3499 302.63 47.5599C305.29 50.7199 307.82 53.93 310.28 57.15C312.69 60.31 315.02 63.47 317.34 66.61C318.44 68.1 319.54 69.5799 320.64 71.0599C323.84 75.3499 330.12 83.12 333.51 87.15Z" fill="#D3EBFA"/>
<path d="M269.65 19.0402H212.83V9.4502H248.66C256.5 12.1802 263.44 15.4202 269.65 19.0402Z" fill="#C3E6FA"/>
<path d="M294.03 38.09H212.79V28.5H283.42C287.24 31.56 290.74 34.77 294.02 38.09H294.03Z" fill="#C3E6FA"/>
<path d="M310.28 57.1399H212.77V47.5498H302.64C305.3 50.7098 307.83 53.9199 310.29 57.1399H310.28Z" fill="#C3E6FA"/>
<path d="M320.64 71.0505V76.1906H212.73V66.6006H317.34C318.44 68.0906 319.54 69.5705 320.64 71.0505Z" fill="#C3E6FA"/>
<path d="M320.62 85.6602H212.71V95.2502H320.62V85.6602Z" fill="#C3E6FA"/>
<path d="M65.3796 36.6602V114.05H28.3896V76.2502C29.2396 74.9902 30.0997 73.7503 30.9797 72.5103C32.6397 70.1803 34.3596 67.8902 36.1396 65.6302C38.4196 62.7402 40.7997 59.9103 43.2797 57.1503C45.3897 54.8103 47.5697 52.5103 49.8297 50.2703C52.7697 47.3503 55.8397 44.5202 59.0497 41.7902C61.0997 40.0402 63.2096 38.3302 65.3796 36.6602Z" fill="#D3EBFA"/>
<path d="M78.9 27.29V114.04H8.75C10.52 109.46 12.48 104.9 14.63 100.4C16.64 96.1701 18.8201 91.9901 21.1801 87.8701C22.5001 85.5501 23.8801 83.2601 25.3101 80.9901C26.3101 79.4001 27.34 77.8201 28.4 76.2501C29.25 74.9901 30.1101 73.7501 30.9901 72.5101C32.6501 70.1801 34.37 67.8901 36.15 65.6301C38.43 62.7401 40.81 59.9101 43.29 57.1501C45.4 54.8101 47.5801 52.5101 49.8401 50.2701C52.7801 47.3501 55.8501 44.52 59.0601 41.79C61.1101 40.04 63.22 38.33 65.39 36.66C67.46 35.07 69.58 33.5101 71.75 32.0001C74.08 30.3801 76.46 28.81 78.91 27.29H78.9Z" fill="#C3E6FA"/>
<path d="M65.3807 36.6602V41.7902H59.0508C61.1008 40.0402 63.2107 38.3302 65.3807 36.6602Z" fill="#ACDEFA"/>
<path d="M65.3802 50.2603V57.1403H43.2803C45.3903 54.8003 47.5703 52.5003 49.8303 50.2603H65.3704H65.3802Z" fill="#ACDEFA"/>
<path d="M65.3804 65.6201V72.5001H30.9805C32.6405 70.1701 34.3604 67.8801 36.1404 65.6201H65.3804Z" fill="#ACDEFA"/>
<path d="M65.3799 80.9902V87.8702H21.1699C22.4899 85.5502 23.8699 83.2602 25.2999 80.9902H65.3799Z" fill="#ACDEFA"/>
<path d="M65.3804 96.3501H17.9404V103.23H65.3804V96.3501Z" fill="#ACDEFA"/>
<path d="M134.67 5.01001V114.05H71.7402V32C74.0702 30.38 76.4501 28.8099 78.9001 27.2899C83.3501 24.5299 87.9902 21.94 92.8502 19.53C99.2502 16.36 106 13.5199 113.13 11.0499C116.67 9.81993 120.29 8.69002 124.01 7.65002C127.48 6.68002 131.04 5.8 134.67 5V5.01001Z" fill="#D3EBFA"/>
<path d="M127.29 11.0601V19.54H92.8398C99.2398 16.37 105.99 13.5301 113.12 11.0601H127.29Z" fill="#C3E6FA"/>
<path d="M127.26 28.5103H78.96V36.9902H127.26V28.5103Z" fill="#C3E6FA"/>
<path d="M127.23 45.96H78.9297V54.4399H127.23V45.96Z" fill="#C3E6FA"/>
<path d="M127.199 63.4102H78.8994V71.8903H127.199V63.4102Z" fill="#C3E6FA"/>
<path d="M127.17 80.8604H78.8701V89.3403H127.17V80.8604Z" fill="#C3E6FA"/>
<path d="M127.14 98.3203H78.8398V106.8H127.14V98.3203Z" fill="#C3E6FA"/>
<path d="M14.6202 100.4V114.04H8.74023C10.5102 109.46 12.4702 104.9 14.6202 100.4Z" fill="#D3EBFA"/>
<path d="M429.83 122.1C397.32 122.1 375.36 116.73 359.62 108.35C359.37 108.22 359.12 108.08 358.87 107.94V300.73H511.39C553.02 251.58 549.22 122.09 429.84 122.09L429.83 122.1Z" fill="#98C0FA"/>
<path d="M374.11 117.86H252.19V108.77H138.75V100.9H34.53V91.6802H19.05C2.28005 122.71 -5 156.94 -5 186.42C-5 236.8 7.7901 278.15 28.4801 300.73H374.11V117.85V117.86Z" fill="#B9DDFA"/>
<path d="M81.8104 147.66H53.4404V158.3H81.8104V147.66Z" fill="#ACD7FA"/>
<path d="M94.4305 135.15H66.0605V145.79H94.4305V135.15Z" fill="#ACD7FA"/>
<path d="M374.11 122.27V114.53C368.75 112.73 363.95 110.65 359.62 108.35C355.25 106.03 351.28 103.4 347.6 100.53H276.04V92.0503H170.22V84.6803H70.1798V73.8604H30.0298C23.4698 83.2504 17.9198 93.1304 13.2998 103.24H20.1498V122.27H374.11Z" fill="#89C1FA"/>
<path d="M34.5293 91.6803L70.1693 73.8604V84.6703L34.5293 100.53V91.6803Z" fill="#7FB2FA"/>
<path d="M138.749 100.901L170.209 84.6704V92.0504L138.749 108.76V100.901Z" fill="#7FB2FA"/>
<path d="M252.189 108.76L276.029 92.0503V100.53L252.189 117.86V108.76Z" fill="#7FB2FA"/>
<path d="M232.16 132.6V140.47H374.11V125.11H245.31V118.23H132.24V109.38H28.39V100.53H14.5701C12.1501 105.61 9.98004 110.76 8.04004 115.93H14.88V125.11H119.84V132.61H232.17L232.16 132.6Z" fill="#ACD7FA"/>
<path d="M239.78 126.46V135.55H374.11V117.85H252.19V108.76H138.75V100.891H34.5297V91.6704H19.0497C16.0297 97.2604 13.3096 102.96 10.8896 108.71H21.4996V117.23H125.72V126.45H239.77L239.78 126.46Z" fill="#98C7FA"/>
<path d="M262.03 153.99H144.41V286.72H262.03V153.99Z" fill="#98C7FA"/>
<path d="M257.84 158.17H148.58V282.54H257.84V158.17Z" fill="#ACD7FA"/>
<path d="M204.75 158.17H201.68V282.54H204.75V158.17Z" fill="#98C7FA"/>
<path d="M146.25 218.82V221.89H259.56V218.82H146.25Z" fill="#98C7FA"/>
<path d="M304.651 106.25H354.201C354.711 106.25 355.221 106.21 355.711 106.12C347.021 100.86 339.921 94.3403 333.511 87.1403C319.891 87.2703 306.361 86.8303 292.931 85.7603V91.0502C292.931 94.9702 294.081 98.5402 295.961 101.24C298.101 104.31 301.211 106.24 304.651 106.24V106.25Z" fill="#ACD7FA"/>
<path d="M341.531 95.37C338.711 92.76 336.051 90.01 333.511 87.15C319.891 87.28 306.361 86.84 292.931 85.77C299.891 95.58 324.361 96.24 341.531 95.37Z" fill="#98C7FA"/>
<path d="M304.651 106.25H354.201C354.711 106.25 355.221 106.21 355.711 106.12C352.171 103.98 348.901 101.63 345.821 99.1099C331.251 99.4999 306.151 100.42 295.961 101.25C298.101 104.32 301.211 106.25 304.651 106.25Z" fill="#98C7FA"/>
<path d="M277.65 73.1705C279.95 77.5405 286.31 79.8805 286.31 79.8805C286.31 79.8805 283.4 80.9606 283.3 82.8906C283.23 84.2806 284.63 85.3905 285.25 85.8805C290.93 90.3705 312.1 91.4805 314.85 87.3505C315.01 87.1105 315.1 86.8605 315.13 86.5905C315.22 85.8405 314.81 84.7805 312.92 83.3405C318.49 86.3905 319.46 81.2005 318.05 79.4705C317.29 78.5505 316.26 78.9305 315.5 79.4905C316.37 78.4105 317.67 76.6605 318.77 74.8205C318.84 74.7105 318.9 74.6005 318.97 74.4905C319.18 74.1305 319.38 73.7705 319.57 73.4104C320.01 72.5604 320.37 71.7305 320.59 70.9805C319.71 69.8005 318.83 68.6105 317.94 67.4104C316.28 67.6404 314.801 69.1105 313.981 70.1105C313.711 70.4405 313.51 70.7105 313.39 70.8805C313.5 70.7105 313.69 70.4206 313.91 70.0306C314.65 68.7706 315.77 66.5505 315.84 64.5705C314.92 63.3305 314 62.0805 313.07 60.8405C309.97 59.9205 308.041 62.2705 307.121 63.8805C308.011 61.8305 309.42 57.8706 308.56 54.9006C307.81 53.9406 307.06 52.9705 306.29 52.0105C302.01 49.6605 300.15 58.4405 299.64 61.4905C300.05 58.4305 300.84 49.3005 296.22 47.4405C290.65 45.2005 291.621 58.6305 291.621 58.6305C291.621 58.6305 288.53 51.0005 286 55.0705C284.23 57.9105 286.51 63.8605 288.04 67.2105C285.98 63.4005 281.671 56.8906 278.361 61.8906C276.341 64.9406 277.6 67.5105 279.6 69.4305C277.68 69.5405 276.48 70.9505 277.66 73.1805L277.65 73.1705Z" fill="#ACD7FA"/>
<path d="M314.851 87.3608C315.081 87.6708 315.331 87.9708 315.601 88.2608C315.751 88.4208 315.901 88.5707 316.071 88.7207C316.601 89.2007 317.601 89.6908 318.901 90.1308C321.421 88.7708 322.651 86.9307 323.081 84.9507C323.541 82.7807 324.261 78.3208 323.641 75.0308C322.641 73.7208 321.651 72.4007 320.661 71.0707C319.681 70.8107 318.591 70.9107 318.051 71.5407C317.631 72.0307 317.271 73.1608 317.251 73.2408C317.151 73.6308 317.061 74.0507 316.981 74.4707C316.591 76.3807 316.301 78.2407 316.111 76.5707C316.011 75.6907 315.771 75.0008 315.341 74.4808C314.261 73.1508 311.981 72.8907 307.801 73.1807C301.971 73.5907 307.981 79.0808 306.211 82.6208C304.441 86.1608 303.911 81.3207 301.081 79.1807C298.251 77.0407 299.311 80.1008 298.251 84.3708C297.191 88.6408 285.261 85.9008 285.261 85.9008C290.941 90.3908 312.111 91.5008 314.861 87.3708L314.851 87.3608Z" fill="#98C7FA"/>
<path d="M298.65 86.1306C295 85.6106 296.75 75.3906 293.19 72.7106C289.62 70.0306 289.82 68.8907 291.08 64.0307C291.68 61.7207 291.27 58.9806 290.68 56.7306C289.57 54.7806 287.66 52.4006 286 55.0806C284.23 57.9206 286.51 63.8706 288.04 67.2206C285.98 63.4106 281.671 56.9007 278.361 61.9007C276.341 64.9507 277.6 67.5206 279.6 69.4406C277.68 69.5506 276.48 70.9606 277.66 73.1906C279.96 77.5606 286.32 79.9007 286.32 79.9007C286.32 79.9007 283.41 80.9805 283.31 82.9105C283.24 84.3005 284.64 85.4107 285.26 85.9007C288.23 88.2507 295.44 89.6707 302.04 89.9007C301.6 87.9407 300.12 86.3406 298.66 86.1306H298.65Z" fill="#90BAFA"/>
<path d="M294.95 65.2403C294.95 65.2403 298.01 61.4404 296.36 60.9004C294.71 60.3604 294.36 63.8803 294.24 63.0703C294.12 62.2603 292.24 58.2103 292 60.8403C291.76 63.4703 293.89 64.8303 294.95 65.2403Z" fill="#98C7FA"/>
<path d="M305.32 70.9305C305.32 70.6705 308.15 68.2306 306.73 67.8906C305.32 67.5506 304.75 70.1905 304.56 69.4105C304.37 68.6305 300.95 65.7006 302.13 68.5206C303.31 71.3506 305.31 70.9305 305.31 70.9305H305.32Z" fill="#98C7FA"/>
<path d="M290.56 84.0603C290.29 83.9603 285.54 83.7304 286.24 82.7704C286.94 81.8104 288.61 82.4304 288.61 82.1204C288.61 81.8104 286.49 79.6804 287.2 78.8704C287.91 78.0604 289.59 80.5304 289.59 80.5304C289.59 80.5304 288.71 77.5504 290.12 77.6504C291.53 77.7504 291.18 81.2104 291.27 80.8504C291.36 80.5004 293.13 78.4604 293.66 79.3804C294.19 80.3004 290.57 84.0603 290.57 84.0603H290.56Z" fill="#ACD7FA"/>
<path d="M136.37 72.1001V77.3901C136.37 85.7801 131.12 92.5801 124.65 92.5801H75.1C71.65 92.5801 68.5499 90.6501 66.4099 87.5801C64.5299 84.8901 63.3799 81.3101 63.3799 77.3901V72.1001C87.3999 74.0101 111.75 73.9301 136.37 72.1001Z" fill="#ACD7FA"/>
<path d="M136.37 72.1003V77.3904C136.37 85.7804 131.12 92.5803 124.65 92.5803H75.1C71.65 92.5803 68.5499 90.6503 66.4099 87.5803C81.0099 86.3903 126.2 85.0103 127.21 85.2903C128.43 85.6303 129.69 80.1504 129.69 80.1504C129.69 80.1504 74.4499 87.6903 63.3799 72.0903C87.3999 74.0003 111.75 73.9203 136.37 72.0903V72.1003Z" fill="#8FC3FA"/>
<path d="M85.3001 73.6803C85.4601 73.4403 85.5501 73.1903 85.5801 72.9203C85.6701 72.1703 85.2602 71.1103 83.3702 69.6703C88.9402 72.7203 89.9101 67.5303 88.5001 65.8003C87.7401 64.8803 86.7101 65.2603 85.9501 65.8203C86.8201 64.7403 88.1202 62.9904 89.2201 61.1504C89.2901 61.0404 89.3501 60.9303 89.4201 60.8203C89.6301 60.4603 89.8301 60.1004 90.0201 59.7404C91.2501 57.3604 91.8701 55.0903 90.5001 54.2203C88.0601 52.6703 85.5901 55.0303 84.4301 56.4403C84.1601 56.7703 83.9601 57.0403 83.8401 57.2103C83.9501 57.0403 84.1402 56.7504 84.3602 56.3604C85.4802 54.4404 87.5101 50.2604 85.3201 48.1504C85.0201 47.8604 84.6401 47.6104 84.1601 47.4004C80.6701 45.9204 78.5401 48.4803 77.5601 50.2003C78.7901 47.3803 81.0001 40.9503 76.9101 38.4403C72.4901 35.7303 70.5901 44.7203 70.0801 47.8103C70.4401 45.0903 71.1001 37.6004 68.0301 34.6504C66.0401 36.1204 64.0901 37.6303 62.1901 39.1703C61.8601 42.0503 62.0601 44.9503 62.0601 44.9503C62.0601 44.9503 61.0801 42.5404 59.7801 41.1504C58.4301 42.2804 57.1101 43.4403 55.8101 44.6003C55.9601 47.5403 57.4002 51.1704 58.4802 53.5204C57.2902 51.3104 55.3401 48.1903 53.2601 46.9403C51.4201 48.6703 49.6202 50.4303 47.8702 52.2203C48.1502 53.5503 48.9901 54.7404 50.0301 55.7404C48.1101 55.8504 46.9101 57.2604 48.0901 59.4904C50.3901 63.8604 56.7501 66.2003 56.7501 66.2003C56.7501 66.2003 53.8402 67.2803 53.7402 69.2103C53.6702 70.6003 55.0701 71.7103 55.6901 72.2003C61.3701 76.6903 82.5401 77.8003 85.2901 73.6703L85.3001 73.6803Z" fill="#ACD7FA"/>
<path d="M124.95 66.4202C124.21 69.3202 120.89 72.5003 116.02 74.7103C115.34 75.0203 114.62 75.3103 113.88 75.5803C113.12 75.8503 112.64 76.1403 112.26 76.4303C110.89 77.4603 110.73 78.4603 103.83 78.5803C99.0397 78.6703 92.9997 77.7103 89.3497 76.4603C88.0497 76.0203 87.0496 75.5302 86.5196 75.0502C86.3596 74.9002 86.1997 74.7503 86.0497 74.5903C85.7797 74.3003 85.5297 74.0003 85.2997 73.6903C83.2997 70.9703 82.9097 67.6603 82.8397 67.2403C82.0997 62.6203 83.7797 61.1103 85.7897 60.8103C86.3297 60.7303 86.8897 60.7402 87.4297 60.8002C88.0697 60.8702 88.6897 61.0102 89.2197 61.1602C90.1097 61.4202 90.7597 61.7103 90.8697 61.7503C90.7697 61.6903 90.2097 61.3603 89.4197 60.8203C88.9197 60.4803 88.3297 60.0503 87.6997 59.5603C86.5997 58.7003 85.3997 57.6203 84.4297 56.4303C84.4097 56.4003 84.3897 56.3803 84.3697 56.3503C82.8997 54.5203 81.9497 52.4203 82.6697 50.3403C83.2397 48.6903 84.2297 48.1203 85.3297 48.1403C87.9297 48.1803 91.1797 51.4603 91.2797 51.5603C91.1197 51.3503 82.8997 40.5502 88.2397 37.4202C93.4797 34.3502 96.6397 46.8703 96.8097 47.5603C96.6897 46.9403 94.8997 36.7802 101.32 35.7902C106.43 35.0102 107.39 42.1902 107.56 45.5402C107.71 43.3602 108.72 39.7703 113.69 39.5603C120.79 39.2603 112.51 50.5603 112.37 50.7503C112.46 50.6403 116.64 45.9103 119.09 49.4303C119.16 49.5303 119.23 49.6303 119.29 49.7303C119.72 50.4003 120 51.0403 120.18 51.6403C120.91 54.1003 119.89 55.8403 119.89 55.8403H122.63C122.63 55.8403 122.65 55.8403 122.66 55.8403C123.69 55.8703 124.44 57.1502 124.77 58.6702C125.14 60.3802 124.96 62.3803 124.02 63.1803C124.33 63.1403 124.65 63.1802 124.88 63.4102C125.54 64.0502 125.13 65.7102 124.95 66.4202Z" fill="#ACD7FA"/>
<path d="M142.92 64.3303C142.88 64.5103 142.83 64.7004 142.78 64.8904C140.75 72.2104 136.06 73.9803 136.06 73.9803C132.84 79.9303 118.67 76.3004 115.1 75.8904C115.04 75.8904 114.99 75.8803 114.93 75.8703C114.54 75.8303 114.19 75.7303 113.88 75.5703C113.29 75.2703 112.85 74.7503 112.53 74.0803C111.6 72.1203 111.71 68.7903 112.46 65.1903C112.98 62.7203 114.53 61.8703 116.09 61.6903C117.76 61.5003 119.42 62.0603 119.81 62.2103C119.46 62.0703 118.02 61.4403 116.77 60.2003C115.35 58.8003 114.15 56.6203 115.03 53.4903C115.96 50.1603 117.79 49.5503 119.3 49.7203C120.63 49.8703 121.71 50.6104 121.75 50.6404C121.69 50.5404 117.9 43.9203 122.28 42.8103C126.7 41.6903 127.58 44.8904 127.58 44.8904C127.58 44.8904 131.2 36.1903 136.07 41.9903C139.23 45.7603 137.01 49.4103 135.07 51.4903C137.25 49.8103 140.54 48.1804 141.29 52.7704C141.54 54.2704 141.46 55.5303 141.18 56.5803C140.17 60.4303 136.51 61.4903 136.51 61.7403C136.51 61.7903 136.68 61.7403 136.98 61.6303C137.64 61.3903 138.89 60.9003 140.09 60.7303C141.95 60.4603 143.68 60.9603 142.93 64.3303H142.92Z" fill="#ACD7FA"/>
<path d="M93.5204 71.2704C93.1004 73.2604 91.8605 75.0903 89.3405 76.4503C88.0405 76.0103 87.0404 75.5203 86.5104 75.0403C86.3504 74.8903 86.1904 74.7403 86.0404 74.5803C85.7704 74.2903 85.5204 73.9903 85.2904 73.6803C82.5504 77.8103 61.3704 76.7003 55.6904 72.2103C55.6904 72.2103 67.6204 74.9603 68.6804 70.6803C69.7404 66.4103 68.6804 63.3503 71.5104 65.4903C74.3404 67.6303 74.8704 72.4703 76.6404 68.9303C78.4104 65.3903 72.4005 59.8903 78.2305 59.4903C82.4205 59.2003 84.6904 59.4603 85.7704 60.7903C86.2004 61.3103 86.4404 62.0004 86.5404 62.8804C86.7304 64.5504 87.0204 62.6904 87.4104 60.7804C87.5004 60.3604 87.5904 59.9403 87.6804 59.5503C87.7004 59.4803 88.0605 58.3503 88.4805 57.8503C89.2305 56.9603 91.0504 57.1103 92.1704 57.8503C95.4204 59.9903 94.1904 68.0704 93.5104 71.2604L93.5204 71.2704Z" fill="#98C7FA"/>
<path d="M122.97 63.54C120.8 67.41 119.67 69.91 116.01 74.71C115.72 75.09 115.41 75.4801 115.09 75.9001C115.03 75.9001 114.98 75.8901 114.92 75.8801C114.53 75.8401 114.18 75.74 113.87 75.58C113.11 75.85 112.63 76.14 112.25 76.43C110.88 77.46 110.72 78.46 103.82 78.58C99.0301 78.67 92.9901 77.71 89.3401 76.46C88.0401 76.02 87.04 75.53 86.51 75.05C86.35 74.9 86.19 74.75 86.04 74.59C87.62 73.47 89.3801 72.5101 89.7201 72.1201C90.3001 71.4501 91.89 70.9501 93.51 71.2801C94.34 71.4501 95.19 71.8301 95.91 72.5301C98.03 74.5601 97.6801 70.29 99.4501 66.83C101.22 63.37 102.28 67.0301 106.17 69.3701C110.06 71.7101 106.52 66.0101 107.23 62.8901C107.94 59.7701 110.94 60.92 112.45 65.2C113.11 67.07 114.6 64.85 116.08 61.7C116.31 61.22 116.53 60.72 116.75 60.21C118.4 56.42 119.88 52.0701 119.96 51.7701L120.16 51.6401L121.72 50.6501C122.88 49.9201 122.67 53.23 122.64 55.84C122.62 57.22 122.65 58.41 122.96 58.69C123.84 59.51 125.79 58.49 122.96 63.54H122.97Z" fill="#98C7FA"/>
<path d="M142.92 64.3305C142.88 64.5105 142.83 64.7005 142.78 64.8905C140.75 72.2105 136.06 73.9805 136.06 73.9805C132.84 79.9305 118.67 76.3005 115.1 75.8905C115.04 75.8905 114.99 75.8805 114.93 75.8705C114.54 75.8305 114.19 75.7305 113.88 75.5705C113.12 75.8405 112.64 76.1304 112.26 76.4204C111.9 75.6704 111.86 75.0905 111.86 75.0905C111.86 75.0905 112.11 74.7105 112.53 74.0805C114.74 70.7205 121.79 60.0504 122.98 58.6804C123.39 58.2104 124.02 58.3304 124.77 58.6604C126.61 59.4504 129.18 61.4304 130.93 58.6804C132.72 55.8804 137.87 55.7505 141.16 56.5805C140.15 60.4305 136.49 61.4905 136.49 61.7405C136.49 61.7405 135.69 65.5905 137.64 65.4905C138.79 65.4305 141.24 63.9805 142.91 64.3205L142.92 64.3305Z" fill="#98C7FA"/>
<path d="M65.4003 51.5704C65.4003 51.5704 68.4603 47.7704 66.8103 47.2304C65.1603 46.6904 64.8103 50.2105 64.6903 49.4005C64.5703 48.5905 62.6903 44.5404 62.4503 47.1704C62.2103 49.8004 64.3403 51.1604 65.4003 51.5704Z" fill="#98C7FA"/>
<path d="M103.83 54.2105C104.18 53.1905 105.59 48.0504 104.53 48.9304C103.47 49.8004 103.12 52.3805 103.12 52.3805C103.12 52.3805 100.41 48.5804 100.17 50.5504C99.9299 52.5204 101.94 53.0605 101.35 53.0605C100.76 53.0605 96.16 52.7905 97.87 54.2105C99.58 55.6305 103.83 54.2105 103.83 54.2105Z" fill="#98C7FA"/>
<path d="M58.3297 61.1906C58.3297 61.1906 59.9797 57.1106 58.3297 57.2606C56.6797 57.4006 56.9197 59.2206 56.9197 59.2206C56.9197 59.2206 54.4397 55.0905 54.3297 57.8105C54.2097 60.5205 58.3397 61.1906 58.3397 61.1906H58.3297Z" fill="#98C7FA"/>
<path d="M75.77 57.2602C75.77 57.0002 78.6 54.5602 77.18 54.2202C75.77 53.8802 75.2 56.5202 75.01 55.7402C74.82 54.9602 71.4001 52.0302 72.5801 54.8502C73.7601 57.6802 75.76 57.2602 75.76 57.2602H75.77Z" fill="#98C7FA"/>
<path d="M132.35 47.2305C132.7 46.8205 136.27 46.3804 134.84 44.9104C133.41 43.4404 131.88 45.3004 132.35 44.9104C132.82 44.5204 133.94 41.6904 132.26 43.0404C130.58 44.3904 132.35 47.2405 132.35 47.2405V47.2305Z" fill="#98C7FA"/>
<path d="M104.23 62.5505C104.58 62.0405 108.21 60.0906 107.24 59.0306C106.27 57.9706 105.82 59.6006 105.82 59.6006C105.82 59.6006 106.62 57.2606 105.25 57.9706C103.88 58.6806 104.23 62.5505 104.23 62.5505Z" fill="#98C7FA"/>
<path d="M61.0104 70.3803C60.7404 70.2803 55.9904 70.0502 56.6904 69.0902C57.3904 68.1402 59.0604 68.7502 59.0604 68.4402C59.0604 68.1302 56.9404 66.0002 57.6504 65.1902C58.3604 64.3802 60.0404 66.8502 60.0404 66.8502C60.0404 66.8502 59.1604 63.8702 60.5704 63.9702C61.9804 64.0702 61.6305 67.5302 61.7205 67.1702C61.8105 66.8202 63.5805 64.7802 64.1105 65.7002C64.6405 66.6202 61.0204 70.3803 61.0204 70.3803H61.0104Z" fill="#98C7FA"/>
<path d="M247.28 99.3706C247.33 99.6406 246.86 99.8105 246.53 100.041C245.86 100.501 244.89 100.961 243.68 101.411C235.62 104.381 217.18 106.561 210.52 100.981C210.25 100.761 210.01 100.521 209.78 100.281C209.22 99.6706 208.79 99.0806 208.11 98.1006C208.02 97.9706 207.93 97.8405 207.83 97.7006C207.82 97.6805 207.8 97.6606 207.79 97.6406C207.33 96.9806 206.86 96.2606 206.4 95.5006C204.81 92.9106 203.25 89.8806 202.34 87.1506C201.36 84.2006 201.15 81.6105 202.47 80.3205C202.67 80.1205 203.02 79.8006 203.52 79.7606C204.84 79.6506 206.17 81.6205 207.26 83.9405C208.62 86.8205 209.6 90.2306 209.76 90.7706C209.62 90.2606 208.78 87.0905 208.17 83.5605C207.44 79.3805 207.03 74.6905 208.48 73.2905C210.14 71.6905 211.87 77.4005 213.01 82.2905C213.75 85.4805 214.23 88.3305 214.27 88.5505C214.26 88.3405 214.09 85.6305 214.01 82.1805C213.87 76.0805 214.01 67.6605 215.77 66.5605C217.65 65.3805 218.26 75.3005 218.46 81.9205C218.56 85.1405 218.56 87.5806 218.56 87.5806C218.56 87.5806 218.9 85.0405 219.51 81.8205C220.51 76.5805 222.22 69.5506 224.35 68.8406C226.46 68.1406 227.05 74.8705 227.19 80.1805C227.23 81.8705 227.23 83.4106 227.22 84.5206C227.22 85.4606 227.19 86.1006 227.19 86.2506C227.19 86.1006 227.22 85.4806 227.27 84.5306C227.31 83.6606 227.37 82.5105 227.44 81.2005C227.46 80.8305 227.48 80.4505 227.51 80.0605C227.57 78.9805 227.65 77.8206 227.73 76.6306C228.12 71.1706 228.71 65.2406 229.49 64.2406C230.31 63.1906 231.83 69.7106 233.03 75.8406C233.08 76.1006 233.13 76.3706 233.18 76.6306C233.49 78.2606 233.79 79.8305 234.03 81.2005C234.19 82.1105 234.34 82.9306 234.45 83.6106C234.61 84.5706 234.73 85.2606 234.78 85.5806C234.73 85.2806 234.64 84.6505 234.52 83.7905C234.42 83.0605 234.3 82.1705 234.19 81.1905C234.02 79.7805 233.86 78.1806 233.77 76.6206C233.72 75.7906 233.68 74.9705 233.67 74.1805C233.66 73.2605 233.67 72.4006 233.75 71.6406C233.89 70.1606 234.21 69.0906 234.82 68.8306C235.98 68.3206 237 72.1806 237.78 76.6206C238.02 78.0006 238.24 79.4405 238.44 80.8205C238.46 80.9405 238.47 81.0705 238.49 81.1905C238.64 82.2905 238.77 83.3505 238.89 84.3005C238.81 83.3605 238.72 82.3105 238.65 81.1905C238.64 80.9405 238.62 80.6905 238.61 80.4305C238.54 79.2105 238.49 77.9206 238.48 76.6206C238.42 71.7406 238.81 66.6906 240.43 64.2606C244.08 58.7906 248.12 76.6206 248.12 76.6206C250.02 91.1406 246.54 95.4106 247.29 99.3706H247.28Z" fill="#ACD7FA"/>
<path d="M242.14 95.3906C242.19 95.1506 243.36 80.8705 245.23 78.4505C247.09 76.0405 251.08 75.0605 251.03 76.1905C250.98 77.3205 249.65 93.7106 246.59 94.9906C243.53 96.2706 242.15 95.3806 242.15 95.3806L242.14 95.3906Z" fill="#98C7FA"/>
<path d="M221.129 96.3707C221.239 95.9607 217.27 89.5407 220.17 88.7107C223.06 87.8807 225.639 93.3707 225.639 93.3707C225.639 93.3707 225.1 81.9707 228.11 85.0307C231.11 88.0907 233.47 93.5807 233.47 93.5807C233.47 93.5807 231.75 79.3007 233.47 81.5707C235.19 83.8507 237.539 94.7207 237.759 94.1007C237.969 93.4807 236.67 80.5407 239.58 79.4007C242.49 78.2607 245.8 97.7207 245.8 97.7207L221.149 96.3707H221.129Z" fill="#98C7FA"/>
<path d="M247.8 93.8003L247.2 99.4004L246.52 105.71H206.47L205.79 100.56L205.12 95.4303C219.97 96.5303 235.11 94.9803 247.8 93.8103V93.8003Z" fill="#ACD7FA"/>
<path d="M247.21 99.3906L246.53 105.701C234.1 107.031 220.59 106.811 206.48 105.701L205.8 100.551C219.35 101.921 235.42 102.241 247.21 99.3906Z" fill="#98C7FA"/>
<path d="M230.019 98.9907C222.389 98.9907 214.039 98.5408 207.049 98.0208C206.369 97.9708 205.879 97.9307 205.799 97.9307C205.669 97.9307 205.569 97.8307 205.569 97.7107C205.569 97.5907 205.669 97.4907 205.789 97.4907C205.879 97.4907 206.229 97.5107 207.079 97.5807C219.589 98.5007 236.449 99.2307 245.729 97.5007C245.849 97.4807 245.969 97.5507 245.989 97.6707C246.009 97.7907 245.929 97.9007 245.809 97.9207C241.679 98.6907 236.069 98.9807 230.009 98.9807L230.019 98.9907Z" fill="#98C7FA"/>
<path d="M295.889 85.21L293.359 108.09C292.939 111.89 289.389 114.78 285.139 114.78H278.729C275.989 114.78 273.539 113.57 272.029 111.7C271.199 110.67 270.659 109.44 270.509 108.1L268.359 88.6899L267.979 85.22H295.889V85.21Z" fill="#ACD7FA"/>
<path d="M280.229 61.7102V77.6202C280.229 77.6202 282.859 78.0202 282.859 77.6202V60.7803L280.229 61.7202V61.7102Z" fill="#7FB2FA"/>
<path d="M290.48 61.3399C290.53 63.2399 289.86 64.4099 289.47 64.9599C287.23 68.1199 281.67 68.7099 277.95 67.1899C276.71 66.6799 275.85 66.0099 275.36 65.5899C275.36 65.5899 274.23 65.42 273.22 65.13C272.75 65 272.3 64.8399 272 64.6599C270.08 63.5199 269.44 59.9699 270.96 58.2399C272.12 56.9199 274.83 56.0999 274.83 56.0999C274.83 56.0999 274.66 53.8199 275.51 52.4899C276.73 50.5899 280.36 50.5099 282.22 50.7199C283.12 50.8199 284.82 51.01 286.07 52.28C287.08 53.31 287.29 54.4599 287.35 54.9299C287.35 54.9299 291.31 53.56 292.65 56.63C292.69 56.71 292.73 56.8 292.76 56.88C293.77 59.44 290.47 61.3399 290.47 61.3399H290.48Z" fill="#ACD7FA"/>
<path d="M295.89 85.21L293.36 108.09C292.94 111.89 289.39 114.78 285.14 114.78H278.73C275.99 114.78 273.54 113.57 272.03 111.7C275.75 111.38 281.8 112.99 286.27 109.84C292.52 105.43 290.51 91.7999 290.51 91.7999C277.64 93.6599 273.23 92.1899 268.37 88.6899L267.99 85.22H295.9L295.89 85.21Z" fill="#8FC3FA"/>
<path d="M296.95 84.7997C296.64 84.9897 296.28 85.1397 295.89 85.2197C295.89 85.2197 296.08 85.3597 296.28 85.6197C296.12 85.7997 295.96 85.9597 295.79 86.1197C294.8 87.0797 293.85 87.6797 293.85 87.6797C291.89 88.0697 289.59 88.3997 287.04 88.5597C286.6 88.5897 286.15 88.6098 285.69 88.6298C283.54 88.7098 281.24 88.6498 278.81 88.3898C278.51 88.3598 278.22 88.3198 277.92 88.2798C276.9 88.1498 275.87 87.9898 274.82 87.7798C273.81 87.5798 272.52 86.9797 270.36 86.5697C270.12 86.5197 269.88 86.4797 269.62 86.4397C269.05 86.3497 268.55 86.2997 268.11 86.2497C266.43 86.0897 265.64 86.1397 265.01 85.4997C263.75 84.2297 264.21 81.3497 265.75 80.4197C266.82 79.7797 268.37 80.0897 268.5 79.5697C268.57 79.3097 268.28 79.0897 267.99 78.8097C266.61 77.5097 268.49 73.8197 270.56 72.9797C272.63 72.1397 274.67 71.7298 277.84 73.0298C277.84 73.0298 280.47 70.0197 283.37 71.4297C284.72 72.0797 285.2 72.5397 285.33 72.8397C285.61 72.3197 286.34 71.5597 288.25 71.4297C291.19 71.2297 295.87 74.4397 293.31 77.5497C293.31 77.5497 295.88 76.9697 297.66 80.5597C297.83 80.8997 297.93 81.2397 297.98 81.5797C298.14 82.7297 297.66 83.8497 296.97 84.7997H296.95Z" fill="#ACD7FA"/>
<path d="M296.95 84.7999C296.64 84.9899 296.28 85.1399 295.89 85.2199C295.89 85.2199 296.08 85.36 296.28 85.62C296.7 86.18 297.13 87.2999 295.51 88.6599C293.7 90.1799 289.08 89.1299 287.04 88.5599C286.42 88.3899 286.04 88.26 286.04 88.26C286.04 88.26 285.92 88.41 285.69 88.62C285.11 89.15 283.83 90.0799 281.93 90.0799C280.03 90.0799 279.19 89.03 278.8 88.38C278.63 88.09 278.56 87.88 278.56 87.88C278.56 87.88 278.39 88.01 277.91 88.28C277.53 88.49 276.95 88.7899 276.11 89.1899C274.2 90.0799 269.6 86.4499 269.6 86.4499C269.86 86.4999 270.1 86.5399 270.34 86.5799C273.27 87.0199 274.86 86.45 275.77 85.78C276.03 85.6 276.22 85.4099 276.39 85.2199C276.98 84.5599 277.19 83.8799 278.34 83.1699C280.03 82.1199 281.93 82.1499 282.86 82.1699C285.49 82.2099 287.42 83.24 288.27 83.77C289.12 83.13 289.75 81.7299 290.77 81.0999C292.21 80.2099 295.79 80.0499 296.19 80.1599C296.88 80.3499 297.59 80.8699 297.96 81.5799C298.12 82.7299 297.64 83.8499 296.95 84.7999Z" fill="#98C7FA"/>
<path d="M290.48 61.3401C290.53 63.2401 289.86 64.4101 289.47 64.9601C287.23 68.1201 281.67 68.7101 277.95 67.1901C276.71 66.6801 275.85 66.0101 275.36 65.5901C275.36 65.5901 274.23 65.4201 273.22 65.1301C275.05 65.1701 277.1 64.9301 277.63 63.5901C278.67 60.9801 281.93 62.7201 281.93 62.7201C281.93 62.7201 281.95 60.5801 284.55 60.3801C287.15 60.1801 287.75 61.5801 288.12 61.4501C288.49 61.3201 288.94 58.6401 290.8 57.6401C291.58 57.2201 292.25 57.0001 292.77 56.8901C293.78 59.4501 290.48 61.3501 290.48 61.3501V61.3401Z" fill="#98C7FA"/>
<path d="M278.129 77.8002C278.049 77.8502 276.589 75.9403 275.339 76.8603C274.089 77.7803 275.849 79.6902 274.239 79.5502C272.629 79.4102 269.939 79.0502 270.109 80.6802C270.279 82.3102 272.409 84.1502 275.409 81.6702C278.409 79.1902 282.729 81.5302 281.929 79.1902C281.129 76.8502 279.659 76.7502 278.129 77.7902V77.8002Z" fill="#98C7FA"/>
<path d="M281.93 56.0501C281.86 55.8401 281.57 53.7901 280.54 54.4201C279.51 55.0601 280.47 56.5401 279.15 56.4701C277.83 56.4001 276.51 56.5401 276.66 57.6001C276.81 58.6601 279.21 58.6601 279.29 58.9401C279.37 59.2201 277.82 60.2801 279.29 60.2101C280.76 60.1401 281.02 60.1501 282.03 59.2901C283.04 58.4401 281.93 56.0302 281.93 56.0302V56.0501Z" fill="#98C7FA"/>
<path d="M212.47 52.3702C209.33 60.4202 199.95 70.1103 186.07 73.2803C184.24 73.7003 181.56 74.2902 178.32 74.4402C177.81 74.4702 177.28 74.4802 176.74 74.4802C173.56 74.4802 169.94 74.0302 166.14 72.6302C162.84 71.4102 151.99 67.4402 151.16 58.8802C150.6 53.1802 154.63 48.6502 156.02 47.2202L156.07 47.1702C156.07 47.1702 144.79 41.1202 148 34.3502C148.43 33.4502 151.73 29.3602 152.62 28.5802C152.76 28.4602 152.91 28.3402 153.05 28.2202C153.31 28.0102 153.58 27.8203 153.84 27.6503C154.05 27.5203 154.26 27.3903 154.46 27.2803C155.05 26.9503 155.65 26.7002 156.26 26.5102C161.26 24.9302 166.71 27.5602 169.44 29.2102C169.85 29.4502 167.73 26.9602 167.47 26.5502C167.47 26.5502 165.6 12.9302 182.72 15.1202C194.91 16.6802 191 27.6202 190.96 27.7502C191 27.7202 192.29 26.7402 194.18 26.0502C194.5 25.9402 194.83 25.8302 195.18 25.7402C195.37 25.6902 195.56 25.6402 195.76 25.6002C196.68 25.4002 197.67 25.3202 198.7 25.4402C200.55 25.6502 202.51 26.5102 204.29 28.5702C206.03 30.5802 206.03 32.6502 205.18 34.5702C203.22 39.0002 196.72 42.6002 196.72 42.6002C196.72 42.6002 207.46 41.9503 212.77 47.6503C214.19 49.1803 212.77 51.5402 212.45 52.3702H212.47Z" fill="#ACD7FA"/>
<path d="M211.53 66.79C204.48 77.02 188.73 77.7801 178.38 78.2801C176.04 78.3901 174.73 78.4501 172.84 78.2801C165.02 77.5701 151.05 73.34 149.22 63.47C147.75 55.58 154.66 48.56 156.02 47.23L156.07 47.18C159.23 48.91 166.27 52.16 175.27 51.3C175.89 51.24 176.5 51.16 177.1 51.07C177.39 51.03 177.68 50.98 177.97 50.93C182.2 50.15 185.88 48.55 189.01 46.6C189.99 45.99 190.92 45.35 191.79 44.68C198.48 39.6 204.65 35.57 205.19 34.59C204.36 33.83 206.11 35.3 205.19 34.59C203.23 39.02 201.15 43.44 201.15 43.44C201.15 43.44 207.91 41.58 212.78 47.67C212.78 47.67 214.12 49.46 214.72 51.94C215.57 55.43 215.04 61.69 211.52 66.8L211.53 66.79Z" fill="#98C7FA"/>
<path d="M181.019 87.7405C181.059 89.0105 179.039 89.0606 179.039 87.7706C179.059 86.5306 179.089 84.3005 179.109 83.0505C179.259 73.4205 179.449 60.7505 179.599 51.0505L179.689 45.1105C179.689 44.6905 180.379 44.6605 180.379 45.1105C180.579 58.6405 180.819 74.2205 181.019 87.7305V87.7405Z" fill="#7FB2FA"/>
<path d="M179.659 49.9705L187.799 42.5605C187.869 42.4905 187.989 42.5005 188.049 42.5705C188.119 42.6405 188.109 42.7505 188.049 42.8205L180.11 50.4505C179.98 50.5805 179.769 50.5705 179.649 50.4505C179.519 50.3205 179.529 50.1105 179.649 49.9905L179.659 49.9705Z" fill="#7FB2FA"/>
<path d="M179.709 76.0003L191.499 65.2704C191.609 65.1704 191.769 65.1803 191.869 65.2903C191.959 65.3903 191.959 65.5504 191.859 65.6504L180.369 76.7003C180.179 76.8803 179.879 76.8803 179.699 76.6903C179.519 76.5003 179.519 76.2004 179.709 76.0204V76.0003Z" fill="#7FB2FA"/>
<path d="M179.769 59.6806L167.539 48.4406C167.489 48.3906 167.479 48.3107 167.539 48.2607C167.589 48.2107 167.669 48.2006 167.719 48.2506L180.409 58.9806C180.609 59.1506 180.629 59.4507 180.469 59.6507C180.309 59.8507 179.999 59.8706 179.799 59.7106C179.799 59.7106 179.789 59.7106 179.789 59.7006L179.769 59.6806Z" fill="#7FB2FA"/>
<path d="M178.05 20.5905C178.05 20.4205 179.92 17.4605 178.05 17.5305C176.18 17.6005 177.41 20.1105 177.41 20.1105C177.41 20.1105 173.33 17.4704 174.4 19.0604C175.47 20.6504 178.05 20.5905 178.05 20.5905Z" fill="#98C7FA"/>
<path d="M196.45 66.3404C196.58 66.2304 200.02 65.6005 198.7 64.2705C197.38 62.9405 196.37 65.5504 196.37 65.5504C196.37 65.5504 195.56 60.7604 195.11 62.6204C194.66 64.4804 196.45 66.3404 196.45 66.3404Z" fill="#8FC3FA"/>
<path d="M155.45 31.8405C155.45 31.6705 157.32 28.7105 155.45 28.7805C153.58 28.8505 154.81 31.3605 154.81 31.3605C154.81 31.3605 150.73 28.7204 151.8 30.3104C152.87 31.9004 155.45 31.8405 155.45 31.8405Z" fill="#98C7FA"/>
<path d="M161.01 38.4104C159.14 38.4804 160.37 40.9905 160.37 40.9905C160.37 40.9905 158.26 37.6204 157.36 39.9404C156.99 40.9104 158.08 41.2804 159.17 41.4104C157.98 41.6504 156.92 42.3305 157.29 43.0205C157.85 44.0805 161.01 41.4705 161.01 41.4705C161.01 41.3005 162.88 38.3404 161.01 38.4104Z" fill="#98C7FA"/>
<path d="M158.7 60.6106C156.83 60.6806 158.06 63.1906 158.06 63.1906C158.06 63.1906 155.95 59.8206 155.05 62.1406C154.68 63.1106 155.77 63.4806 156.86 63.6106C155.67 63.8506 154.61 64.5306 154.98 65.2206C155.54 66.2806 158.7 63.6705 158.7 63.6705C158.7 63.5005 160.57 60.5406 158.7 60.6106Z" fill="#8FC3FA"/>
<path d="M181.27 35.8705C179.76 34.7505 179.16 37.4905 179.16 37.4905C179.16 37.4905 179.62 33.5404 177.47 34.7904C176.57 35.3104 177.2 36.2804 177.96 37.0704C176.88 36.5204 175.63 36.3905 175.48 37.1505C175.25 38.3205 179.35 38.2605 179.35 38.2605C179.46 38.1305 182.77 36.9905 181.26 35.8705H181.27Z" fill="#98C7FA"/>
<path d="M193.35 39.6703C192.9 37.8503 191.36 38.8204 191.36 38.8204C191.36 38.8204 193.57 36.8203 191.11 36.4103C190.09 36.2403 188.95 37.7304 189.04 38.8204C188.56 37.7004 188.68 36.4604 188.08 36.9604C187.16 37.7204 188.37 40.6703 188.37 40.6703C188.54 40.6403 193.8 41.4903 193.35 39.6703Z" fill="#98C7FA"/>
<path d="M193.35 27.6005C192.9 25.7805 191.36 26.7505 191.36 26.7505C191.36 26.7505 193.57 24.7505 191.11 24.3405C190.09 24.1705 188.95 25.6605 189.04 26.7505C188.56 25.6305 188.68 24.3905 188.08 24.8905C187.16 25.6505 188.37 28.6005 188.37 28.6005C188.54 28.5705 193.8 29.4205 193.35 27.6005Z" fill="#98C7FA"/>
<path d="M207.7 50.4007C207.53 47.7307 205.12 48.7206 205.12 48.7206C205.12 48.7206 208.72 46.4507 205.37 45.2707C203.97 44.7807 202 46.5907 201.86 48.1507C201.47 46.4607 201.94 44.7506 200.97 45.3006C199.48 46.1406 200.45 50.5806 200.45 50.5806C200.7 50.5806 207.88 53.0805 207.7 50.4105V50.4007Z" fill="#8FC3FA"/>
<path d="M198.629 90.2402L197.159 97.7803C197.159 97.7803 197.149 97.8502 197.139 97.8802C197.139 97.9002 197.14 97.9302 197.12 97.9602C197.12 98.0102 197.1 98.0602 197.08 98.1202C197.08 98.1502 197.07 98.1802 197.06 98.2102C197.04 98.2702 197.029 98.3303 197.009 98.4003C197.009 98.4303 196.99 98.4702 196.98 98.5002C196.84 98.9602 196.649 99.3902 196.419 99.8002C196.289 100.03 196.14 100.26 195.98 100.47C195.91 100.57 195.829 100.67 195.749 100.77C195.709 100.82 195.669 100.86 195.629 100.91C195.419 101.15 195.179 101.4 194.919 101.63C194.839 101.7 194.759 101.77 194.669 101.84C194.629 101.87 194.6 101.9 194.56 101.92C194.5 101.97 194.43 102.01 194.37 102.06C194.3 102.11 194.229 102.16 194.149 102.21C194.059 102.27 193.96 102.33 193.86 102.39C193.77 102.44 193.69 102.49 193.6 102.53C193.51 102.58 193.42 102.62 193.33 102.66C193.24 102.7 193.15 102.74 193.06 102.78C192.97 102.81 192.879 102.85 192.779 102.88C192.639 102.93 192.49 102.97 192.35 103.01C192.29 103.02 192.24 103.04 192.18 103.05C192.16 103.05 192.13 103.06 192.11 103.06C192.04 103.08 191.979 103.09 191.909 103.1C191.839 103.11 191.78 103.12 191.71 103.13C191.64 103.13 191.579 103.15 191.509 103.15C191.439 103.15 191.359 103.16 191.289 103.17H191.269C191.179 103.17 191.099 103.17 191.009 103.17H166.999C164.909 103.17 162.88 101.89 161.73 100C161.69 99.9302 161.64 99.8603 161.6 99.7803C161.25 99.1603 160.99 98.4803 160.85 97.7603L160.57 96.3002L160.509 96.0002L159.379 90.2202C158.829 87.3802 159.86 84.8202 161.85 83.6602C162.55 83.2502 163.359 83.0303 164.249 83.0303H193.749C194.399 83.0303 195.02 83.1502 195.58 83.3802C196.12 83.6002 196.599 83.9202 197.019 84.3102C197.099 84.3902 197.179 84.4602 197.249 84.5502C198.489 85.8902 199.06 87.9702 198.62 90.2202L198.629 90.2402Z" fill="#ACD7FA"/>
<path d="M193.879 85.7102H164.139C164.069 85.7102 164 85.6402 163.99 85.5602C163.98 85.4802 164.03 85.4102 164.09 85.4102H193.919C193.989 85.4102 194.039 85.4802 194.019 85.5602C194.009 85.6402 193.94 85.7102 193.87 85.7102H193.879Z" fill="#98C7FA"/>
<path d="M198.629 90.2401L197.159 97.7802C197.159 97.7802 197.149 97.8501 197.139 97.8801C197.139 97.9001 197.14 97.9301 197.12 97.9601C197.12 98.0101 197.099 98.0601 197.079 98.1201C197.079 98.1501 197.069 98.1801 197.059 98.2101C197.039 98.2701 197.029 98.3301 197.009 98.4001C197.009 98.4301 196.989 98.4701 196.979 98.5001C196.809 99.0301 196.509 99.7401 195.979 100.47C195.909 100.57 195.829 100.67 195.749 100.77C195.709 100.82 195.669 100.86 195.629 100.91C195.419 101.15 195.179 101.4 194.919 101.63C194.839 101.7 194.759 101.77 194.669 101.84C194.629 101.87 194.599 101.9 194.559 101.92C194.499 101.97 194.43 102.01 194.37 102.06C194.3 102.11 194.229 102.16 194.149 102.21C194.059 102.27 193.959 102.33 193.859 102.39C193.769 102.44 193.689 102.49 193.599 102.53C193.509 102.58 193.419 102.62 193.329 102.66C193.239 102.7 193.149 102.74 193.059 102.78C192.969 102.81 192.879 102.85 192.779 102.88C192.639 102.93 192.489 102.97 192.349 103.01C192.289 103.02 192.239 103.04 192.179 103.05C192.159 103.05 192.129 103.06 192.109 103.06C192.039 103.08 191.979 103.09 191.909 103.1C191.839 103.11 191.779 103.12 191.709 103.13C191.639 103.13 191.579 103.15 191.509 103.15C191.439 103.15 191.359 103.16 191.289 103.17H191.269C191.179 103.17 191.099 103.17 191.009 103.17H166.999C164.909 103.17 162.879 101.89 161.729 100C164.519 100.57 173.999 102.15 183.929 96.9001C191.379 92.9701 195.339 87.1801 197.019 84.3101C197.099 84.3901 197.179 84.46 197.249 84.55C198.489 85.89 199.06 87.9701 198.62 90.2201L198.629 90.2401Z" fill="#98C7FA"/>
<path d="M1.89966 246.41C13.0797 290.8 36.9597 319.35 67.1597 319.35H475.54C505.6 319.35 528.14 285.82 533.94 246.41H1.88965H1.89966Z" fill="#C19A84"/>
<path d="M535.26 220.23C535.16 218.02 535 215.8 534.78 213.59H492.21V180.53H526.72C524.59 175.37 522.05 170.39 519.07 165.66H-3.85022C-4.40022 170.7 -4.75016 175.67 -4.91016 180.53H6.50977V213.59H-3.7002C-3.4802 215.83 -3.23021 218.04 -2.96021 220.23H6.50977V239.77H0.349854C0.839853 242.02 1.34978 244.23 1.89978 246.41H533.95C534.27 244.21 534.54 242 534.76 239.77H492.21V220.23H535.26ZM46.4498 239.77H12.8998V220.23H46.4498V239.77ZM46.4498 213.59H12.8998V180.53H46.4498V213.59ZM86.3898 239.77H52.8398V220.23H86.3898V239.77ZM86.3898 213.59H52.8398V180.53H86.3898V213.59ZM126.33 239.77H92.7798V220.23H126.33V239.77ZM126.33 213.59H92.7798V180.53H126.33V213.59ZM166.27 239.77H132.72V220.23H166.27V239.77ZM166.27 213.59H132.72V180.53H166.27V213.59ZM206.21 239.77H172.66V220.23H206.21V239.77ZM206.21 213.59H172.66V180.53H206.21V213.59ZM246.15 239.77H212.6V220.23H246.15V239.77ZM246.15 213.59H212.6V180.53H246.15V213.59ZM286.09 239.77H252.54V220.23H286.09V239.77ZM286.09 213.59H252.54V180.53H286.09V213.59ZM326.03 239.77H292.48V220.23H326.03V239.77ZM326.03 213.59H292.48V180.53H326.03V213.59ZM365.97 239.77H332.42V220.23H365.97V239.77ZM365.97 213.59H332.42V180.53H365.97V213.59ZM405.91 239.77H372.36V220.23H405.91V239.77ZM405.91 213.59H372.36V180.53H405.91V213.59ZM445.85 239.77H412.3V220.23H445.85V239.77ZM445.85 213.59H412.3V180.53H445.85V213.59ZM485.79 239.77H452.24V220.23H485.79V239.77ZM485.79 213.59H452.24V180.53H485.79V213.59Z" fill="#7D7D96"/>
<path d="M47.4497 220.71H37.6396V288.81H47.4497V220.71Z" fill="#AD7760"/>
<path d="M51.5292 221.151L87.0292 204.771V195.541L47.4492 216.231L51.5292 221.151Z" fill="#996553"/>
<path d="M33.959 217.36C33.959 217.36 33.9589 214.91 40.5389 212.01C45.0289 210.03 87.0289 190.46 87.0289 190.46V198.79L51.5289 216.22L33.959 217.36Z" fill="#AD7760"/>
<path d="M35.2794 216.23H50.7095C51.1595 216.23 51.5194 216.59 51.5194 217.04V221.32C51.5194 221.71 51.1994 222.03 50.8094 222.03H34.6494C34.2594 222.03 33.9395 221.71 33.9395 221.32V217.56C33.9395 216.83 34.5294 216.23 35.2694 216.23H35.2794Z" fill="#BF8673"/>
<path d="M477.509 288.82H487.319V220.72H477.509V288.82Z" fill="#AD7760"/>
<path d="M473.44 221.451L437.93 204.771V195.541L477.5 216.231L473.44 221.451Z" fill="#996553"/>
<path d="M491 217.36C491 217.36 491 214.91 484.42 212.01C479.93 210.03 437.93 190.46 437.93 190.46V198.79L473.43 216.22L491 217.36Z" fill="#AD7760"/>
<path d="M490.29 222.021H474.13C473.74 222.021 473.42 221.701 473.42 221.311V217.031C473.42 216.581 473.78 216.221 474.23 216.221H489.66C490.39 216.221 490.99 216.811 490.99 217.551V221.311C490.99 221.701 490.67 222.021 490.28 222.021H490.29Z" fill="#BF8673"/>
<path d="M87.0293 151.21V220.72H437.929V151.21H87.0293ZM149.079 161.31H175.269V214.56H149.079V161.31ZM141.839 214.56H115.649V161.31H141.839V214.56ZM182.519 161.31H208.709V214.56H182.519V161.31ZM215.949 161.31H242.139V214.56H215.949V161.31ZM249.379 161.31H275.569V214.56H249.379V161.31ZM282.809 161.31H308.999V214.56H282.809V161.31ZM316.239 161.31H342.429V214.56H316.239V161.31ZM349.669 161.31H375.859V214.56H349.669V161.31ZM383.099 161.31H409.289V214.56H383.099V161.31ZM92.6793 161.31H108.379V214.56H92.6793V161.31ZM432.229 214.56H416.529V161.31H432.229V214.56Z" fill="#996553"/>
<path d="M440.63 147.271H84.3196C82.6793 147.271 81.3496 148.6 81.3496 150.24V152.181C81.3496 153.821 82.6793 155.151 84.3196 155.151H440.63C442.27 155.151 443.6 153.821 443.6 152.181V150.24C443.6 148.6 442.27 147.271 440.63 147.271Z" fill="#AD7760"/>
<path d="M37.6504 288.861V319.74H45.4004L54.2804 288.811L37.6504 288.861Z" fill="#AD7760"/>
<path d="M487.31 288.861V319.74H479.56L470.67 288.811L487.31 288.861Z" fill="#AD7760"/>
<path d="M492.31 288.811H32.6499C32.2909 288.811 32 289.102 32 289.461V299.25C32 299.609 32.2909 299.901 32.6499 299.901H492.31C492.669 299.901 492.96 299.609 492.96 299.25V289.461C492.96 289.102 492.669 288.811 492.31 288.811Z" fill="#996553"/>
<path d="M49.6102 288.811H475.34C476.53 288.811 477.5 287.841 477.5 286.651V265.871H47.4502V286.651C47.4502 287.841 48.4202 288.811 49.6102 288.811Z" fill="#C1B9B7"/>
<path d="M437.93 220.71L471.96 237.52C478.52 240.76 482.66 247.44 482.66 254.75V268.08C482.66 270.93 480.35 273.24 477.5 273.24H47.4501C44.6001 273.24 42.29 270.93 42.29 268.08V254.75C42.29 247.44 46.4401 240.76 52.9901 237.52L87.02 220.71H437.92H437.93Z" fill="#CEC9C8"/>
<path d="M344.15 272.61C357.2 268.3 392.77 259.67 386.38 248.57C386.38 248.57 383.13 224.72 362.79 220.71H199.74C193.32 222.78 187.01 225.2 180.86 227.98C178.76 228.93 176.57 230.01 175.35 231.96C173.42 235.05 174.63 239.18 176.7 242.18C182.86 251.09 194.72 253.74 205.5 254.87C216.28 256 265.38 256.24 281.53 273.23H342.42C343 273.02 343.57 272.79 344.16 272.6L344.15 272.61Z" fill="#C7BFBD"/>
<path d="M58.9502 249.81L84.4302 249.68L109.91 249.57L160.87 249.43L211.82 249.35L262.78 249.32L313.74 249.34L364.69 249.43L415.65 249.57L441.13 249.68L466.6 249.81L441.13 249.94L415.65 250.06L364.69 250.2L313.74 250.28L262.78 250.31L211.82 250.28L160.87 250.2L109.91 250.05L84.4302 249.94L58.9502 249.81Z" fill="#C7BFBD"/>
<path d="M170.62 156.841C170.62 156.841 164.66 158.831 160.87 156.841C157.08 154.851 153.65 155.361 152.92 157.721C152.2 160.091 154.179 164.511 155.269 167.901C156.349 171.291 152.35 180.591 153.53 184.981C154.7 189.371 155.46 197.111 156.72 202.891C157.98 208.671 155.08 218.361 153.65 220.771C152.22 223.181 156.18 223.301 159.79 223.121C163.4 222.941 181.28 227.631 192.66 227.091C204.04 226.551 225.17 222.941 231.67 223.301C238.17 223.661 244.489 223.661 245.759 221.861C247.019 220.051 242.33 217.161 241.43 214.091C240.53 211.021 239.8 187.341 237.82 180.311C235.83 173.281 230.78 166.961 231.5 163.171C232.22 159.381 235.47 155.591 233.85 152.521C232.22 149.451 228.97 152.341 225.72 152.521C222.47 152.701 191.409 149.991 170.639 156.851L170.62 156.841Z" fill="#F5D1B5"/>
<path d="M164.78 186.88C163.25 180.11 161.51 172.43 155.8 169.5C155.69 169.44 155.57 169.44 155.46 169.49C155.46 169.72 155.45 169.971 155.43 170.221C160.81 172.981 162.5 180.461 164 187.061C164.88 190.971 165.72 194.661 167.25 196.811C170.98 202.05 171.58 205.96 169.7 212.9C167.94 219.42 167.21 223.96 167.18 224.15C167.44 224.2 167.71 224.25 167.98 224.29C167.98 224.24 168.7 219.7 170.48 213.12C172.41 205.99 171.76 201.751 167.91 196.341C166.48 194.331 165.66 190.71 164.79 186.88H164.78Z" fill="#F2C5A7"/>
<path d="M193.19 226.52C193 226.52 192.83 226.39 192.79 226.19C192.76 226.03 192.02 222.21 192.56 217.03C193.06 212.24 194.81 205.39 200.31 199.89C201.29 198.91 202.24 197.96 203.17 197.04C212.12 188.12 218.59 181.67 221.18 176.17C221.28 175.97 221.52 175.881 221.72 175.981C221.92 176.081 222.01 176.32 221.91 176.52C219.26 182.15 212.75 188.64 203.74 197.62C202.81 198.54 201.86 199.491 200.88 200.471C195.56 205.791 193.86 212.451 193.37 217.091C192.84 222.151 193.58 225.99 193.59 226.03C193.63 226.25 193.49 226.46 193.27 226.51C193.24 226.51 193.22 226.51 193.19 226.51V226.52Z" fill="#F2C5A7"/>
<path d="M194.06 211.42C194.06 211.42 191.52 210.98 189.92 206.73C188.31 202.48 187.11 196.31 189.12 195.38C191.13 194.45 196.01 202.16 196.1 206.33C196.1 206.33 194.65 209.08 194.07 211.42H194.06Z" fill="#F2C5A7"/>
<path d="M196.09 206.321C196.09 206.321 208.13 193.561 214.39 202.631C214.71 203.361 213.99 206.961 209.65 208.331C205.32 209.691 194.93 211.781 194.05 211.421C194.05 211.421 195.29 207.741 196.08 206.331L196.09 206.321Z" fill="#F2C5A7"/>
<path d="M205.92 194.871C205.92 194.871 201.29 177.511 205.92 174.061C207.15 173.341 210.66 181.551 209.48 191.291L205.92 194.881V194.871Z" fill="#F2C5A7"/>
<path d="M220.83 177.721C220.83 177.721 225.64 174.701 227.72 170.611C229.81 166.521 228.84 162.501 227.72 161.861C226.6 161.221 220.75 170.311 220.83 177.721Z" fill="#F2C5A7"/>
<path d="M217.66 164.101C217.66 164.101 217.72 164.111 217.75 164.111C217.94 164.111 218.1 163.981 218.15 163.791C218.2 163.571 218.06 163.351 217.84 163.301C213.34 162.281 210.24 160.101 208.64 156.821C207.44 154.371 207.56 152.181 207.56 152.151C207.56 152.141 207.56 152.131 207.56 152.121C207.29 152.121 207.02 152.121 206.75 152.121C206.74 152.411 206.67 154.611 207.89 157.131C209.07 159.561 211.72 162.741 217.66 164.081V164.101Z" fill="#F2C5A7"/>
<path d="M210.14 159.701C210.14 159.701 211.67 170.691 215.52 170.931C219.37 171.171 217.75 163.711 217.75 163.711C217.75 163.711 213.34 162.851 210.14 159.711V159.701Z" fill="#F2C5A7"/>
<path d="M180.09 166.541C182.87 169.091 184.2 172.711 183.81 176.721C183.32 181.831 180.1 186.691 175.18 189.731C174.99 189.851 174.93 190.101 175.05 190.291C175.13 190.411 175.26 190.481 175.4 190.481C175.47 190.481 175.55 190.461 175.61 190.421C180.75 187.251 184.12 182.161 184.63 176.801C185.04 172.531 183.62 168.671 180.65 165.951C177.31 162.891 176.24 160.221 175.93 158.521C175.6 156.711 176.04 155.591 176.05 155.561C176.08 155.481 176.09 155.391 176.07 155.311C175.78 155.381 175.49 155.451 175.21 155.521C174.88 156.651 174.11 161.051 180.1 166.551L180.09 166.541Z" fill="#F2C5A7"/>
<path d="M177.55 163.11C177.55 163.11 172.76 161 169.7 164.97C166.64 168.94 167.11 170.96 171.12 169.86C175.13 168.76 179.14 166.06 177.55 163.11Z" fill="#F2C5A7"/>
<path d="M176.81 189.121C176.81 189.121 175.46 201.181 168.27 201.311C161.08 201.441 172.35 189.431 176.81 189.121Z" fill="#F2C5A7"/>
<path d="M182.829 181.85C182.829 181.85 175.239 176.47 171.119 180.2C169.699 181.4 172.119 183.75 175.129 183.87C178.139 183.99 181.739 183.87 181.739 183.87L182.829 181.85Z" fill="#F2C5A7"/>
<path d="M183.51 170.931C183.51 170.931 186.81 171.831 189.22 174.961C191.63 178.091 190.79 181.341 190.06 181.881C189.34 182.421 187.16 181.401 185.85 177.371C185.12 175.141 184.18 173.691 184.18 173.691L183.51 170.941V170.931Z" fill="#F2C5A7"/>
<path d="M179.01 164.88C179.01 164.88 183.26 163.581 188.62 164.361C193.98 165.141 193.98 167.97 193.44 169C192.9 170.02 180.71 166.561 180.71 166.561C180.71 166.561 179.49 165.42 179.02 164.89L179.01 164.88Z" fill="#F2C5A7"/>
<path d="M179.64 209.22C174.61 212.07 172.06 216.09 170.82 218.96C169.55 221.87 169.33 224.17 169.31 224.53C169.57 224.58 169.84 224.63 170.11 224.67C170.11 224.65 170.11 224.64 170.11 224.62C170.11 224.6 170.27 222.23 171.58 219.24C172.78 216.5 175.22 212.65 180.05 209.91C180.25 209.8 180.31 209.55 180.2 209.36C180.09 209.16 179.84 209.1 179.65 209.21L179.64 209.22Z" fill="#F2C5A7"/>
<path d="M178.699 210.27C178.699 210.27 180.369 208.07 181.449 206.75C182.529 205.43 182.709 201.99 184.639 201.93C186.569 201.87 186.579 210.86 178.699 210.27Z" fill="#F2C5A7"/>
<path d="M237.959 180.941C237.909 180.711 237.849 180.501 237.789 180.301C237.749 180.171 237.719 180.041 237.679 179.911C237.559 179.941 237.459 180.031 237.409 180.151C237.389 180.211 235.059 186.131 229.199 187.681C228.979 187.741 228.849 187.961 228.909 188.181C228.959 188.361 229.119 188.481 229.299 188.481C229.329 188.481 229.369 188.481 229.399 188.471C234.709 187.061 237.239 182.471 237.949 180.941H237.959Z" fill="#F2C5A7"/>
<path d="M230.979 187.491C230.979 187.491 225.309 186.901 221.939 189.461C218.569 192.031 220.329 195.131 222.499 194.861C224.669 194.591 230.389 189.281 230.979 187.481V187.491Z" fill="#F2C5A7"/>
<path d="M239.62 195.011C239.62 195.011 239.69 195.011 239.72 195.011C239.7 194.741 239.67 194.461 239.65 194.191C239.21 194.131 237.36 193.941 235.11 194.421C232.76 194.931 229.54 196.301 227.51 199.981C225.98 202.741 225.82 204.981 225.68 206.961C225.46 209.981 225.31 212.171 220.45 214.811C218.49 215.881 216.75 216.711 215.22 217.441C210.25 219.821 207.51 221.121 207.79 225.591V225.611C208.06 225.581 208.33 225.541 208.6 225.511C208.36 221.611 210.62 220.531 215.57 218.171C217.11 217.431 218.86 216.601 220.84 215.521C226.09 212.671 226.28 210.051 226.5 207.021C226.64 205.131 226.79 202.981 228.23 200.371C229.74 197.641 232.11 195.911 235.27 195.221C237.65 194.701 239.62 195.001 239.64 195.001L239.62 195.011Z" fill="#F2C5A7"/>
<path d="M228.06 199.831C228.06 199.831 219.97 202.551 217.75 206.481C215.52 210.411 224.38 207.691 226.09 206.891C226.09 206.891 226.09 204.891 226.59 203.361C227.08 201.831 228.06 199.841 228.06 199.841V199.831Z" fill="#F2C5A7"/>
<path d="M225.86 209.111C225.86 209.111 227.56 213.381 226.92 217.721C226.28 222.051 223.27 221.411 222.73 219.571C222.19 217.721 223.53 213.221 223.53 213.221C223.53 213.221 225.36 211.671 225.86 209.121V209.111Z" fill="#F2C5A7"/>
<path d="M237.801 194.511C237.801 194.511 235.911 196.841 236.071 199.371C236.231 201.901 236.311 205.651 233.981 206.111C231.651 206.561 231.651 198.521 235.501 194.761L237.791 194.511H237.801Z" fill="#F2C5A7"/>
<path d="M216.28 217.381C216.28 217.381 213.7 216.031 209.72 216.431C205.74 216.831 203.52 218.441 203.86 220.441C204.21 222.451 211.04 218.611 213.4 218.761L216.28 217.371V217.381Z" fill="#F2C5A7"/>
<path d="M65.5095 172.581C65.5095 172.581 56.6596 176.691 55.3996 178.681C54.1396 180.671 57.2096 183.191 58.8296 187.891C60.4596 192.591 62.6195 204.691 63.8895 211.731C65.1495 218.771 68.7696 226.901 71.2896 233.581C73.8196 240.261 72.9197 246.221 80.4997 244.421C88.0797 242.611 128.18 227.811 134.32 226.541C140.46 225.281 147.14 224.19 147.5 222.75C147.86 221.31 143.53 209.571 142.26 201.441C141 193.311 133.05 173.451 131.97 169.111C130.89 164.781 132.51 157.371 130.34 155.931C128.17 154.491 113.54 159.361 104.88 161.891C96.2097 164.421 80.8595 165.231 65.5095 172.591V172.581Z" fill="white"/>
<path d="M76.5296 214.43C72.1996 208.29 67.4996 188.42 64.0696 183.01C61.9296 179.64 58.4596 178.36 56.1496 177.88C55.8096 178.17 55.5496 178.44 55.3996 178.67C54.1396 180.66 57.2096 183.18 58.8296 187.88C60.4596 192.58 62.6195 204.68 63.8895 211.72C65.1495 218.76 68.7696 226.89 71.2896 233.57C73.7796 240.14 72.9496 246.01 80.1196 244.49C80.3396 240.61 81.4895 236.73 81.7595 233.93C82.1195 230.14 80.8595 220.57 76.5195 214.43H76.5296Z" fill="#EFE8E6"/>
<path d="M101.31 183.19C101.31 183.19 99.2798 183.55 97.1098 184.09C94.9398 184.63 95.2998 187.52 97.1098 189.51C98.9198 191.5 101.53 190.59 101.31 193.12C101.09 195.65 104.34 208.29 106.69 212.08C109.04 215.87 108.13 218.4 110.12 221.29C110.12 221.29 109.58 225.62 110.84 228.69C112.1 231.76 112.83 233.75 113.73 235.91C114.63 238.08 117.34 236.45 119.69 235.19C122.04 233.93 128.54 231.94 133.23 231.4C137.93 230.86 153.82 227.97 157.79 226.16C161.76 224.35 167.9 223.99 167.54 222.01C167.18 220.02 162.84 217.5 162.3 215.33C161.76 213.16 160.86 199.08 157.79 192.21C154.72 185.35 155.13 182.5 154.22 176.69C152.76 167.36 149.84 170.36 146.05 171.08C142.26 171.8 136.12 175.78 126.91 176.68C117.7 177.58 106.84 181.15 101.31 183.18V183.19Z" fill="#EFDDDA"/>
<path d="M110.12 196.19C109.94 192.22 106.15 189.87 101.31 188.79C98.7 188.21 96.95 186.46 95.89 184.98C95.25 186.13 95.7901 188.06 97.1101 189.51C98.9201 191.5 101.53 190.59 101.31 193.12C101.09 195.65 104.34 208.29 106.69 212.08C109.04 215.87 108.13 218.4 110.12 221.29C110.12 221.29 109.58 225.62 110.84 228.69C112.1 231.76 112.83 233.75 113.73 235.91C114.36 237.42 115.86 237.09 117.5 236.33C117.41 232.2 118.08 231.58 118.42 228.15C118.78 224.55 117.52 219.48 114.09 213.34C110.66 207.2 110.3 200.16 110.12 196.18V196.19Z" fill="#EBD5CE"/>
<path d="M137.02 174.36C139.51 179.32 149.68 200.52 155.94 226.84C156.7 226.6 157.33 226.38 157.79 226.17C158.14 226.01 158.5 225.87 158.87 225.73C152.61 199.4 142.42 178.2 139.95 173.26C139.04 173.62 138.06 174 137.02 174.37V174.36Z" fill="#EBD5CE"/>
<path d="M123.35 177.15C126.29 181.08 136.13 196.02 144.29 229.56C145.72 229.28 147.16 228.99 148.56 228.69C140.82 197.08 130.63 181.68 126.79 176.7C125.66 176.81 124.51 176.97 123.35 177.15Z" fill="#EBD5CE"/>
<path d="M128.65 232.23C129.58 232.01 130.51 231.82 131.41 231.67C123.31 198.31 114.61 183.67 111.94 179.73C110.92 180.02 109.93 180.31 108.97 180.61C111.34 183.9 120.31 197.95 128.64 232.23H128.65Z" fill="#EBD5CE"/>
<path d="M128 181.02C128 181.02 124.75 197.58 119.09 211.31C119.09 211.31 140.76 223.64 146.06 226.77C146.06 226.77 153.04 206.42 154.37 201.49C154.37 201.49 143.41 187.16 128 181.02Z" fill="#EBD5CE"/>
<path d="M129.97 184.64C129.97 184.64 127.15 198.23 122.32 209.96C122.32 209.96 140.68 220.77 145.21 223.44C145.21 223.44 150.66 206.06 151.79 201.84C151.79 201.84 143.14 189.89 129.97 184.64Z" fill="#EFDDDA"/>
<path d="M136.27 198.18C136.27 198.18 135.49 201.92 134.16 205.16C134.16 205.16 139.22 208.14 140.47 208.87C140.47 208.87 141.97 204.08 142.28 202.92C142.28 202.92 139.9 199.63 136.27 198.18Z" fill="#EBD5CE"/>
<path d="M338.2 159.17C338.2 159.17 334.59 158.81 331.7 157.73C328.81 156.65 323.03 156.65 322.49 159.17C321.95 161.7 325.74 162.78 325.38 166.57C325.02 170.36 319.42 181.2 316.53 188.42C313.64 195.64 313.1 204.13 311.29 210.81C309.48 217.49 306.41 220.56 304.97 222.55C303.53 224.54 307.14 227.06 311.29 227.25C315.44 227.43 328.27 225.99 336.21 227.61C344.16 229.24 374.68 232.85 385.51 229.24C387.5 228.52 387.86 223.82 388.22 219.13C388.58 214.44 393.64 195.29 394.72 186.44C395.8 177.59 395.08 170.37 396.71 167.3C398.34 164.23 399.78 160.98 396.71 160.62C393.64 160.26 381 160.44 375.04 160.8C369.08 161.16 350.84 158.09 338.2 159.17Z" fill="#E5CACA"/>
<path d="M394.73 186.441C395.81 177.591 395.09 170.371 396.72 167.301C398.35 164.231 399.79 160.98 396.72 160.62C396.53 160.6 396.31 160.581 396.06 160.561C394.58 161.201 392.69 162.471 391.12 164.951C388.05 169.831 386.79 179.761 384.98 188.791C383.17 197.821 378.66 204.501 379.02 211.541C379.35 217.961 380.28 225.611 383.86 229.701C384.45 229.561 385.01 229.41 385.52 229.24C387.51 228.52 387.87 223.82 388.23 219.13C388.59 214.43 393.65 195.291 394.73 186.441Z" fill="#D6B9B9"/>
<path d="M354.83 159.37C352.12 163.93 347.13 173.43 343.26 187.16C338.09 205.49 339.54 213.86 334.4 227.3C335.03 227.39 335.64 227.49 336.22 227.61C337.88 227.95 340.51 228.37 343.75 228.8C347.9 216.84 347.84 204.91 351.59 189.32C354.52 177.15 360.27 165.78 363.44 160.08C360.75 159.84 357.83 159.57 354.84 159.36L354.83 159.37Z" fill="#E8D1D1"/>
<path d="M367.531 230.75C372.431 217.53 372.201 197.561 373.961 185.721C375.321 176.611 380.241 166.17 383.201 160.5C380.121 160.57 377.161 160.671 375.041 160.801C374.601 160.831 374.101 160.831 373.541 160.831C371.251 165.321 367.931 173.041 365.651 183.561C362.171 199.651 363.711 216.501 356.851 230.191C360.381 230.471 364.011 230.671 367.521 230.76L367.531 230.75Z" fill="#E8D1D1"/>
<path d="M338.78 159.12C336.09 163.85 329.7 176.15 326.47 191.31C322.75 208.77 322.51 219.01 319.78 226.98C321.73 226.9 323.84 226.83 325.95 226.83C329.62 215.92 329.54 201.36 333.33 188.24C336.63 176.84 341.81 164.29 344.09 158.93C342.25 158.93 340.47 158.99 338.77 159.12H338.78Z" fill="#E8D1D1"/>
<path d="M467.71 164.22C467.71 164.22 441.84 156.09 423.99 181.74C406.13 207.38 425.459 229.24 436.649 233.57C447.849 237.9 474.21 235.38 484.69 210.27C495.16 185.17 480.72 168.91 467.71 164.22Z" fill="#EFE8E6"/>
<path d="M469.829 165.08C469.119 164.76 468.42 164.47 467.72 164.22C467.72 164.22 441.85 156.09 424 181.74C409.42 202.67 419.619 221.08 429.949 229.49C429.999 229.51 430.05 229.53 430.1 229.55C441.3 233.88 467.659 231.36 478.139 206.25C486.259 186.78 479.4 172.64 469.84 165.08H469.829Z" fill="white"/>
<path d="M441.092 192.303C441.704 190.775 441.297 189.176 440.184 188.731C439.071 188.286 437.674 189.164 437.063 190.692C436.452 192.22 436.858 193.819 437.971 194.264C439.084 194.709 440.481 193.832 441.092 192.303Z" fill="#EFE8E6"/>
<path d="M440.209 189.19C440.209 189.19 440.199 189.19 440.189 189.19C439.969 189.19 439.789 188.99 439.799 188.77C439.799 188.54 440.069 183.05 443.289 181.03C443.479 180.91 443.729 180.97 443.849 181.16C443.969 181.35 443.909 181.6 443.719 181.72C440.859 183.51 440.619 188.75 440.609 188.8C440.609 189.02 440.419 189.19 440.199 189.19H440.209Z" fill="#EFE8E6"/>
<path d="M434.549 200.09C434.549 200.09 434.499 200.09 434.469 200.09C434.249 200.05 434.109 199.83 434.149 199.61C435.149 194.5 437.819 193.95 437.929 193.93C438.149 193.89 438.359 194.03 438.399 194.26C438.439 194.48 438.299 194.69 438.079 194.73C438.039 194.73 435.829 195.27 434.939 199.77C434.899 199.96 434.729 200.1 434.539 200.1L434.549 200.09Z" fill="#EFE8E6"/>
<path d="M437.099 191.16C437.099 191.16 437.069 191.16 437.049 191.16C436.899 191.14 435.529 190.9 432.959 188C432.809 187.83 432.829 187.58 432.999 187.43C433.169 187.28 433.419 187.3 433.569 187.47C435.919 190.13 437.149 190.36 437.159 190.37C437.379 190.4 437.539 190.6 437.509 190.82C437.479 191.03 437.309 191.18 437.099 191.18V191.16Z" fill="#EFE8E6"/>
<path d="M446.039 194.75C442.919 194.75 440.909 192.74 440.829 192.64C440.669 192.48 440.679 192.22 440.829 192.07C440.989 191.91 441.249 191.92 441.399 192.07C441.419 192.09 443.489 194.15 446.539 193.91C446.759 193.89 446.959 194.06 446.979 194.28C446.999 194.5 446.829 194.7 446.609 194.72C446.419 194.74 446.219 194.74 446.039 194.74V194.75Z" fill="#EFE8E6"/>
<path d="M461.489 201.91C460.879 203.44 459.479 204.32 458.369 203.87C457.259 203.43 456.849 201.83 457.459 200.3C458.069 198.77 459.469 197.89 460.579 198.34C461.689 198.78 462.099 200.38 461.489 201.91Z" fill="#EFE8E6"/>
<path d="M455.329 209.08C455.329 209.08 455.289 209.08 455.259 209.08C455.039 209.04 454.889 208.83 454.929 208.61C455.509 205.12 457.679 203.43 457.769 203.36C457.949 203.22 458.199 203.26 458.339 203.44C458.479 203.62 458.439 203.87 458.259 204.01C458.229 204.03 456.259 205.59 455.729 208.75C455.699 208.95 455.519 209.09 455.329 209.09V209.08Z" fill="#EFE8E6"/>
<path d="M460.579 198.75C460.389 198.75 460.219 198.62 460.179 198.42C460.159 198.31 459.659 195.56 462.559 192.1C462.699 191.93 462.959 191.91 463.129 192.05C463.299 192.19 463.319 192.45 463.179 192.62C460.529 195.79 460.969 198.24 460.969 198.26C461.009 198.48 460.869 198.69 460.649 198.74C460.619 198.74 460.599 198.74 460.569 198.74L460.579 198.75Z" fill="#EFE8E6"/>
<path d="M457.319 200.71C455.299 200.71 453.029 198.13 452.939 198.02C452.789 197.85 452.809 197.59 452.979 197.45C453.149 197.3 453.409 197.32 453.549 197.49C454.159 198.2 456.059 200 457.429 199.9C457.649 199.88 457.849 200.05 457.869 200.27C457.889 200.49 457.719 200.69 457.499 200.71C457.439 200.71 457.389 200.71 457.329 200.71H457.319Z" fill="#EFE8E6"/>
<path d="M466.009 204.42C466.009 204.42 465.969 204.42 465.949 204.42C463.299 204.01 461.309 202.3 461.229 202.22C461.059 202.07 461.039 201.82 461.189 201.65C461.339 201.48 461.589 201.46 461.759 201.61C461.789 201.63 463.669 203.24 466.079 203.62C466.299 203.65 466.449 203.86 466.419 204.08C466.389 204.28 466.219 204.42 466.019 204.42H466.009Z" fill="#EFE8E6"/>
<path d="M211.63 225.56C213.75 226.35 210.3 219.95 217.68 219.56C226.15 219.1 246.03 224.6 257.27 223.44C266.43 222.5 275.77 221.49 284.06 220.7C284.22 220.69 284.38 220.67 284.53 220.66H284.57C292.53 219.89 299.33 218.99 303.79 218.02C318.47 214.83 322.3 199.34 323.3 191.61C323.33 191.39 323.35 191.18 323.38 190.99C323.64 188.68 323.65 187.2 323.65 187.2C323.65 187.2 322.2 180.35 322.17 180.34C321.92 180.3 306.47 182.2 292.41 182.01C282.01 181.87 274.54 180 272.33 179.77L270.38 183.57C269.83 184.65 268.719 185.34 267.509 185.36C258.239 185.55 218.72 186.55 204.38 190.41C189.91 194.31 189.01 217.17 211.62 225.57L211.63 225.56Z" fill="#C68C7C"/>
<path d="M226.58 226.111C235.05 225.651 249.78 224.21 261.02 223.04C255.87 218.24 235.42 200.521 221.86 201.601C211.15 202.451 218.88 219.231 226.57 226.111H226.58Z" fill="#B37868"/>
<path d="M253.31 199.27C256.01 202.91 260.49 210.91 266.06 215.08C268.22 216.7 275.65 218.56 283.98 220.52C284.17 220.56 284.35 220.6 284.54 220.65C284.55 220.65 284.56 220.65 284.57 220.66C289.69 221.86 295.11 223.08 299.83 224.29C302.29 224.93 304.56 225.55 306.5 226.18C309.12 227.02 311.14 227.84 312.21 228.63C321.26 235.34 329.39 240.29 336.62 243.81C347.89 249.31 356.95 251.33 363.82 251.08C375.77 250.65 381.14 243.37 380.09 235.66C378.78 226.02 373.6 219.17 366.23 214.29C356.31 207.73 346.1 199.39 332.9 194.23C331.29 193.6 329.63 193.01 327.93 192.49C327.91 192.49 327.88 192.47 327.86 192.47C327.26 192.29 325.89 191.94 325.69 191.73L325.4 191.09L323.66 187.19C323.66 187.19 323.65 187.19 323.62 187.19C320.27 187.04 316.93 186.92 313.63 186.85C313 186.84 312.37 186.82 311.74 186.81C302.33 186.64 293.29 186.78 285.24 187.27C284.21 187.33 283.19 187.39 282.19 187.47C261.73 188.97 248.51 192.8 253.32 199.28L253.31 199.27Z" fill="#C68C7C"/>
<path d="M266.069 215.09C268.239 216.71 275.659 218.57 283.979 220.52C284.169 220.56 284.349 220.6 284.539 220.65C284.549 220.65 284.559 220.65 284.569 220.65C289.689 221.85 295.109 223.07 299.829 224.28C302.289 224.92 304.559 225.54 306.499 226.17C306.909 226.3 307.309 226.43 307.689 226.56C311.419 217.9 316.339 206.18 316.339 206.18L266.069 215.08V215.09Z" fill="#BF806F"/>
<path d="M299.83 224.281C302.29 224.921 304.56 225.541 306.5 226.171C309.12 227.011 311.14 227.831 312.21 228.621C321.26 235.331 329.39 240.281 336.62 243.801C359.94 241.921 365.6 230.641 349.72 223.511C336.14 217.421 311.49 221.701 299.83 224.281Z" fill="#B37868"/>
<path d="M299.83 224.281C302.29 224.921 304.56 225.541 306.5 226.171C306.91 226.301 307.31 226.431 307.69 226.561C308.26 225.231 308.86 223.831 309.47 222.411C305.78 223.031 302.47 223.701 299.83 224.281Z" fill="#A66A5A"/>
<path d="M294.01 196.921C294.85 196.891 320.1 195.521 332.9 194.231C331.29 193.601 329.63 193.011 327.93 192.491C327.91 192.491 327.88 192.471 327.86 192.471C325.12 191.821 294.99 196.841 294.01 196.921Z" fill="#B37868"/>
<path d="M289.09 190.5C289.35 190.19 289.82 190.6 289.57 190.91C282.85 199.04 280.92 210.5 284.6 220.39C284.74 220.77 284.15 220.981 284.01 220.601C280.26 210.511 282.24 198.8 289.09 190.5Z" fill="#B37868"/>
<path d="M322.18 180.33C322.18 180.33 323.33 182.84 323.28 185.42C323.28 185.42 303.9 190.92 287.08 188.11C276.66 186.74 270.72 182.92 270.72 182.92C270.72 182.92 271.18 180.63 272.34 179.76L322.18 180.34V180.33Z" fill="#B37868"/>
<path d="M285.339 239.91C284.659 235.71 277.929 234.84 274.199 235.34C270.469 235.84 266.629 234.38 266.629 234.38C266.319 233.15 265.869 232.02 265.159 231.06C263.379 228.67 260.199 228.14 254.159 231.46C248.119 234.78 242.309 232.42 238.379 233.94C234.449 235.45 225.839 242.08 226.319 243.8C227.049 246.38 228.129 247.07 233.619 245.87C234.949 245.58 236.319 245.51 238.519 245.38C241.939 245.17 246.269 245.45 250.109 246.29C250.109 246.29 250.839 246.49 252.219 246.58C252.219 246.58 269.849 248.53 275.029 248.56C280.209 248.59 286.009 244.11 285.339 239.91Z" fill="#F6AF9A"/>
<path d="M264.329 229.73C264.329 229.73 262.059 227.19 260.179 227.17C259.009 227.16 250.999 229.62 247.089 230.14C243.189 230.66 234.369 233.26 229.239 237.76C224.109 242.27 225.929 244.26 226.359 244.93L264.329 229.72V229.73Z" fill="#F2C7BB"/>
<path d="M267.759 234.75C267.759 234.75 268.249 234.19 267.539 233.39C267.539 233.39 265.619 230.74 264.329 229.74C264.329 229.74 261.589 228.31 256.619 230.22C251.659 232.13 247.659 232.47 242.899 233.5C238.809 234.39 232.389 237.21 228.229 241.37C226.899 242.76 226.199 243.84 226.359 244.95C226.479 245.81 227.399 246.95 229.039 247.74C235.849 251.04 243.929 248.23 248.789 248.53C253.649 248.83 260.299 248.71 260.879 248.25C261.459 247.8 261.009 243.51 259.959 241.86C258.909 240.21 257.599 240.04 257.639 239.96C257.679 239.88 251.389 237.23 255.309 235.6C256.799 234.98 265.239 234.97 267.739 234.76L267.759 234.75Z" fill="#FAE9E4"/>
<path d="M266.129 249.01C266.479 249.08 266.829 249.14 267.169 249.2C271.349 249.98 275.439 250.66 279.429 251.24C331.769 258.91 367.309 250.83 367.309 250.83C388.729 242.3 364.869 217.05 347.929 220.75C310.959 228.85 273.099 232.29 269.239 232.46L267.799 240.11L266.469 247.17L266.119 249.01H266.129Z" fill="#C68C7C"/>
<path d="M269.24 232.46L268.77 234.94C270.72 235.73 272.57 236.58 274.25 237.48C274.25 237.48 283.15 235.05 289.49 234.78C295.83 234.51 301.22 236.67 301.22 236.67C301.22 236.67 302.7 237.07 303.65 235.59C303.95 235.13 305.3 232.07 307.02 228.08C286.94 231 271.61 232.35 269.23 232.46H269.24Z" fill="#BF806F"/>
<path d="M273.399 232.6C273.459 232.2 274.079 232.32 274.019 232.72C273.089 238.63 273.259 244.62 274.549 250.47C274.639 250.86 274.049 251.08 273.959 250.68C272.649 244.72 272.459 238.63 273.409 232.6H273.399Z" fill="#B37868"/>
<path d="M266.469 247.169C266.689 247.859 266.929 248.549 267.159 249.199C271.339 249.979 275.429 250.659 279.419 251.239C279.289 250.619 277.749 250.509 277.979 249.519C281.019 236.099 272.329 235.679 269.239 232.459L266.469 247.169Z" fill="#B37868"/>
<path d="M257.779 237.73C260.429 234.4 266.729 236.93 269.739 239.2C272.749 241.46 276.809 242.07 276.809 242.07C277.679 241.15 278.619 240.38 279.719 239.89C282.439 238.68 285.469 239.77 289.109 245.62C292.749 251.47 298.969 252.26 301.659 255.5C304.349 258.74 309.059 269.11 307.799 270.37C305.909 272.26 304.179 271.97 299.969 268.23C298.949 267.32 297.789 266.6 295.939 265.4C293.059 263.54 289.149 261.67 285.389 260.53C285.389 260.53 284.659 260.35 283.399 259.75C283.399 259.75 267.069 252.82 262.539 250.32C258.009 247.81 255.139 241.06 257.779 237.73Z" fill="#F6AF9A"/>
<path d="M281.52 239.07C281.52 239.07 284.74 237.95 286.39 238.85C287.42 239.41 293.22 245.46 296.38 247.81C299.54 250.16 305.97 256.72 308.26 263.16C310.55 269.6 307.99 270.45 307.29 270.83L281.52 239.07Z" fill="#F2C7BB"/>
<path d="M275.999 241.85C275.999 241.85 275.929 241.05 276.949 240.69C276.949 240.69 279.919 239.31 281.529 239.06C281.529 239.06 284.619 239.14 288.029 243.23C291.429 247.32 294.769 249.56 298.419 252.77C301.559 255.54 305.799 261.13 307.409 266.78C307.899 268.64 307.979 269.92 307.299 270.82C306.769 271.51 305.419 272.06 303.599 271.96C296.049 271.53 290.349 265.14 285.959 263.03C281.569 260.93 275.819 257.58 275.529 256.9C275.239 256.22 277.719 252.69 279.439 251.76C281.159 250.83 282.389 251.31 282.389 251.23C282.389 251.14 289.179 251.89 286.539 248.56C285.539 247.3 278.089 243.25 275.999 241.84V241.85Z" fill="#FAE9E4"/>
<path d="M221.18 199.14C219.3 198.22 203.55 189.08 197.04 195.03C192.93 198.79 192.05 215.24 202.1 222.44C226.52 239.93 264.07 256.81 266.33 256.39C268.59 255.98 277.22 239.61 275.86 239.02C274.5 238.43 241.49 209.02 221.19 199.13L221.18 199.14Z" fill="#C68C7C"/>
<path d="M237.299 226.69C237.299 226.69 259.649 230.14 273.149 236.91C268.809 233.32 259.789 225.7 249.709 217.99L238.649 219.95C238.649 219.95 236.759 223.19 237.299 226.69Z" fill="#BF806F"/>
<path d="M264.439 249.3C265.509 248.05 266.339 246.98 267.119 245.47C268.549 242.72 269.469 239.67 270.179 236.66C270.269 236.27 270.859 236.48 270.769 236.87C270.059 239.91 269.129 242.98 267.679 245.76C266.169 248.66 263.689 251.01 261.529 253.43C261.439 253.53 261.309 253.59 261.189 253.55C261.189 253.55 261.099 253.53 261.039 253.45C260.829 253.18 263.209 250.74 264.439 249.3Z" fill="#B37868"/>
<path d="M301.96 230.471L316.7 202.411L260.95 194.5L235.96 218.781L237.75 220.75L299.8 231.721L301.96 230.471Z" fill="#3A4B82"/>
<path d="M301.96 233.881L316.34 206.191L316.7 202.411L301.96 230.471V233.881Z" fill="#2F4078"/>
<path d="M309.69 204.571L296.74 226.51L245.31 216.171L263.38 198L309.69 204.571Z" fill="#2F4078"/>
<path d="M307.17 211.351C307.17 211.351 307.13 211.351 307.11 211.351L258.28 203.481C258.09 203.451 257.96 203.271 257.99 203.071C258.02 202.881 258.2 202.751 258.4 202.781L307.23 210.651C307.42 210.681 307.55 210.861 307.52 211.061C307.49 211.231 307.34 211.361 307.17 211.361V211.351Z" fill="#3A4B82"/>
<path d="M303.26 218.68C303.26 218.68 303.22 218.68 303.2 218.68L251.9 210.05C251.71 210.02 251.58 209.83 251.61 209.64C251.64 209.45 251.82 209.32 252.02 209.35L303.32 217.981C303.51 218.011 303.64 218.2 303.61 218.39C303.58 218.56 303.43 218.69 303.26 218.69V218.68Z" fill="#3A4B82"/>
<path d="M250.839 167.05C250.839 167.05 260.129 129.51 263.829 120.83C265.349 116.69 269.33 113.73 274 113.71C280 113.7 284.869 118.55 284.889 124.54C284.889 125.79 284.689 126.98 284.299 128.1C284.209 128.36 284.11 128.62 284 128.87C282.08 133.81 273.4 156.91 264.88 173.39C263.78 176.3 260.979 178.37 257.679 178.38C253.419 178.39 250.369 175.6 250.359 171.34C250.359 169.67 250.339 169 250.839 167.03V167.05Z" fill="#F6AF9A"/>
<path d="M280.12 113.721C280.12 113.721 287.38 114.87 286.4 126.91C285.42 138.95 276.66 162.05 276.66 162.05C276.66 162.05 258.73 158.981 253.26 152.311C253.26 152.311 260.74 122.1 265.98 116.66C271.53 110.9 280.11 113.721 280.11 113.721H280.12Z" fill="#FAF5F5"/>
<path d="M276.66 162.05C276.66 162.05 269.73 160.86 263.17 158.36C263.42 151.95 266.06 142.72 268.46 137.54C271.28 131.47 272.31 125.15 272.31 125.15L283.34 141.69C280.47 151.99 276.65 162.05 276.65 162.05H276.66Z" fill="#F7E8E4"/>
<path d="M274.739 163.441C274.739 163.441 269.869 160.881 269.239 156.011C268.609 151.141 272.389 133.291 273.449 125.831C274.519 118.371 267.519 120.341 266.909 116.581C266.909 116.581 277.269 106.501 295.959 105.701C295.959 105.701 306.119 104.371 316.089 106.761C324.229 108.711 328.139 112.211 329.599 114.871C331.059 117.531 329.789 124.981 327.129 132.531C324.469 140.081 321.649 146.581 320.949 154.691C320.619 158.611 319.719 170.971 319.459 180.151C319.459 180.151 319.519 181.061 299.819 184.341C280.119 187.621 275.289 179.441 275.289 179.441C275.009 171.861 274.729 163.451 274.729 163.451L274.739 163.441Z" fill="#F6AF9A"/>
<path d="M289.619 109.16L287.529 89.7904C287.029 85.9704 289.069 82.1104 292.769 80.4704C297.279 78.4704 302.559 80.5104 304.559 85.0204C304.829 85.6304 305.029 86.2604 305.149 86.8904L310.229 107.22C310.269 107.36 310.409 108.01 310.409 108.01C311.499 112.81 309.009 117.53 304.339 119.6C299.029 121.95 293.049 119.79 290.699 114.48C289.969 112.83 289.779 111.02 289.599 109.17L289.619 109.16Z" fill="#F6AF9A"/>
<path d="M305.689 89.0206C305.359 87.7106 305.159 86.9006 305.159 86.9006C305.029 86.2706 304.839 85.6406 304.569 85.0306C302.569 80.5206 297.299 78.4807 292.779 80.4807C289.069 82.1207 287.039 85.9706 287.539 89.8006C287.539 89.8006 289.049 103.811 289.589 108.831C301.489 106.951 304.179 99.3906 305.699 89.0206H305.689Z" fill="#EA9A88"/>
<path d="M309.859 105.681C309.859 105.681 302.759 117.221 294.819 115.901C287.699 114.721 289.319 106.381 289.319 106.381C289.319 106.381 284.129 106.661 278.459 108.791C272.789 110.921 266.119 116.181 265.989 116.651C265.859 117.121 267.399 119.301 268.979 120.541C270.559 121.781 272.479 122.251 272.309 125.791C272.139 129.331 268.599 145.351 267.739 149.791C266.879 154.231 266.359 161.221 272.559 164.071C272.559 164.071 271.189 165.271 272.619 166.691C272.619 166.691 273.359 168.631 273.249 171.191C273.249 171.191 273.019 173.701 272.399 175.741C271.769 177.791 271.449 179.021 272.349 179.741C272.349 179.741 276.769 184.811 287.989 185.781C299.209 186.751 313.989 184.411 322.179 180.311C322.179 180.311 323.119 178.941 322.779 175.951C322.439 172.961 320.649 167.751 321.069 163.311C321.499 158.871 321.839 150.331 324.659 142.301C327.479 134.271 330.379 123.601 331.319 119.581C332.259 115.571 331.189 112.811 331.059 111.981C330.799 110.271 323.359 106.481 309.859 105.661V105.681Z" fill="#FAF5F5"/>
<path d="M324.658 142.32C325.848 138.93 327.048 135.08 328.118 131.45C321.188 123.11 314.918 117.84 314.918 117.84C314.918 117.84 311.468 128.32 310.398 133.7C309.328 139.08 306.938 162.74 306.938 162.74C306.938 162.74 307.048 162.79 307.228 162.88C306.508 163.57 305.708 164.18 304.818 164.63C299.778 167.21 289.408 164.75 289.408 164.75C298.878 170.06 307.398 166.89 311.488 164.65C311.848 164.77 312.188 164.87 312.498 164.95C314.768 165.52 311.858 171.26 307.978 175.36C305.818 177.65 299.738 185.31 291.638 185.99C302.248 186.25 314.838 183.99 322.168 180.33C322.168 180.33 323.108 178.96 322.768 175.97C322.428 172.98 320.638 167.77 321.058 163.33C321.488 158.89 321.828 150.35 324.648 142.32H324.658Z" fill="#F7E8E4"/>
<path d="M272.079 165.9C272.329 165.58 272.769 165.37 273.479 165.42C276.059 165.6 279.889 165.18 279.889 165.18C276.409 165 272.559 164.07 272.559 164.07C272.559 164.07 271.669 164.85 272.079 165.9Z" fill="#F7E8E4"/>
<path d="M315.17 119.231C315.35 118.241 315.67 117.271 316.14 116.331C318.81 110.961 323.22 109.051 328.59 111.721C333.05 113.941 335.31 118.811 334.42 123.471L330.91 176.331C330.86 177.371 330.6 178.421 330.11 179.411C328.21 183.221 323.59 184.771 319.77 182.871C316.56 181.271 314.95 177.731 315.66 174.381C315.66 174.381 313.74 134.841 315 120.711C315.02 120.221 315.16 119.221 315.16 119.221L315.17 119.231Z" fill="#F6AF9A"/>
<path d="M328.84 110.131C328.84 110.131 334.48 112.351 336.1 120.641C337.72 128.921 336.61 163.081 336.61 163.081C336.61 163.081 318.76 164.621 310.39 160.691C310.39 160.691 313.21 126.231 314.58 119.231C315.95 112.231 321.41 107.911 328.84 110.131Z" fill="#FAF5F5"/>
<path d="M287.39 197.111C287.39 197.111 289.16 195.59 297.18 188.25C306.35 179.86 313.25 174.22 317.3 171.3C317.8 170.85 318.34 170.47 318.91 170.17C321.57 168.79 324.91 169.03 327.37 171.05C330.66 173.75 331.13 178.61 328.43 181.9C327.9 182.55 327.28 183.08 326.61 183.51L292.37 204.08C292.24 204.18 292.11 204.271 291.97 204.351C290.45 205.261 288.48 205.161 287.04 203.981C285.21 202.471 284.95 199.77 286.45 197.94C286.72 197.61 287.03 197.331 287.37 197.111H287.39Z" fill="#F6AF9A"/>
<path d="M274.909 192.191C274.909 192.191 273.959 190.06 269.839 180C265.129 168.5 267.919 173.701 265.509 169.321C265.249 168.701 264.919 168.131 264.529 167.611C262.719 165.221 259.59 164.02 256.5 164.79C252.37 165.83 249.869 170.02 250.909 174.15C251.109 174.96 251.439 175.71 251.859 176.38L267.399 196.361C267.469 196.501 267.549 196.64 267.639 196.77C268.629 198.24 270.449 199 272.259 198.54C274.559 197.96 275.95 195.631 275.37 193.331C275.27 192.921 275.099 192.531 274.899 192.191H274.909Z" fill="#F6AF9A"/>
<path d="M271.56 86.4104C271.56 86.4104 273.72 92.7904 273.72 97.2904C273.72 101.79 273.36 105.11 273.18 107.81C273 110.51 273.45 113.21 276.51 114.01C279.57 114.82 283.7 113.48 285.59 112.3C288.92 110.23 289.32 106.38 289.32 106.38L289.2 105.26L290.8 85.4104V64.4604H270.75C270.75 64.4604 267.96 74.4404 271.56 86.4004V86.4104Z" fill="#B54C4C"/>
<path d="M275.28 93.1401C276.21 94.9701 276.85 96.9702 276.91 99.0402C276.89 101.09 276.15 103.06 275.94 105.09C275.63 107.7 275.67 110.47 276.93 112.84C277.1 113.26 277.47 113.65 277.61 114.05C276.9 113.5 276.35 112.63 275.94 111.82C273.75 107.44 276.23 103.11 276.53 98.7102C276.61 96.8302 275.76 94.7201 275.28 93.1501V93.1401Z" fill="#A64242"/>
<path d="M279.769 101.411C281.019 103.301 280.359 105.671 280.279 107.771C280.299 109.771 280.019 112.191 281.559 113.681C278.719 112.511 279.639 108.531 279.929 106.111C280.299 104.331 280.329 102.971 279.759 101.411H279.769Z" fill="#A64242"/>
<path d="M285.039 51.1005C285.039 51.1005 301.719 46.3904 307.659 66.0004C313.369 84.8404 303.169 104.91 288.419 105.34C281.799 104.6 277.089 96.6904 272.199 82.0804C267.309 67.4704 270.319 55.2905 285.039 51.1005Z" fill="#F6AF9A"/>
<path d="M274.869 89.4009C275.539 91.0609 276.209 92.5908 276.889 94.0008C278.569 93.1608 280.539 91.8609 280.569 90.8009C280.429 88.5909 277.339 89.0509 274.869 89.4009Z" fill="#EDA48E"/>
<path d="M286.949 88.4608C286.949 88.4608 287.249 86.6607 291.079 85.8707C293.209 85.4307 295.519 84.8808 295.969 86.8108C296.789 89.2508 286.279 92.7008 286.959 88.4608H286.949Z" fill="#EDA48E"/>
<path d="M289.89 83.2505C290.11 84.3805 289.6 85.4206 288.75 85.5906C287.9 85.7506 287.04 84.9706 286.82 83.8506C286.6 82.7206 287.11 81.6806 287.96 81.5106C288.81 81.3506 289.67 82.1305 289.89 83.2505Z" fill="#121D3F"/>
<path d="M278.482 87.5338C279.262 87.3826 279.732 86.416 279.53 85.3749C279.329 84.3339 278.532 83.6126 277.752 83.7638C276.971 83.915 276.501 84.8815 276.703 85.9225C276.905 86.9635 277.701 87.685 278.482 87.5338Z" fill="#121D3F"/>
<path d="M284.959 92.5408C284.019 92.8008 282.679 93.0308 281.989 92.4308C281.729 92.2008 281.459 91.7808 281.629 91.0208C282.309 88.0508 281.879 83.7408 281.879 83.6908C281.849 83.3908 282.069 83.1309 282.369 83.1009C282.669 83.0709 282.929 83.2909 282.959 83.5909C282.979 83.7709 283.409 88.1208 282.689 91.2708C282.679 91.3408 282.629 91.5608 282.699 91.6208C283.009 91.8908 284.369 91.6508 285.389 91.2608C285.669 91.1608 285.979 91.3009 286.089 91.5809C286.199 91.8609 286.049 92.1708 285.769 92.2808C285.589 92.3508 285.299 92.4508 284.949 92.5508L284.959 92.5408Z" fill="#E08C79"/>
<path d="M291.06 95.0205C286.66 100.67 283.03 97.8305 281.97 96.7705C281.83 96.6305 281.9 96.3805 282.1 96.3405L290.81 94.6106C291.04 94.5606 291.2 94.8305 291.06 95.0205Z" fill="white"/>
<path d="M278.669 80.1908C278.669 80.1908 279.519 80.0307 279.669 80.6307C279.839 81.3007 279.979 81.6108 279.609 81.8208C279.239 82.0408 276.379 82.2507 274.279 82.6307C272.149 83.0107 271.839 83.0707 271.669 82.8707C271.499 82.6707 272.539 81.4907 274.669 81.0007C277.149 80.4207 276.019 80.6408 278.669 80.1908Z" fill="#B54C4C"/>
<path d="M284.639 78.9105C284.639 78.9105 283.79 79.0705 283.86 79.6805C283.94 80.3605 283.92 80.7105 284.35 80.7705C284.78 80.8405 288.59 79.8205 290.69 79.4105C292.81 78.9905 293.77 78.9306 293.86 78.6906C293.95 78.4506 291.91 77.7205 289.74 78.0305C287.22 78.3905 287.269 78.3705 284.639 78.9105Z" fill="#B54C4C"/>
<path d="M320.599 105.481C319.069 105.441 318.289 103.291 318.919 102.211C319.549 101.131 320.029 99.1805 319.129 96.5705C318.229 93.9605 314.359 92.1605 313.909 86.0505C313.459 79.9405 315.529 46.3105 289.179 49.1805C289.179 49.1805 281.179 47.6504 274.789 53.5004C268.409 59.3404 266.789 69.5104 267.599 75.2604C268.409 81.0104 271.559 86.4105 271.559 86.4105C271.559 86.4105 270.659 80.8305 271.289 77.0605C271.919 73.2805 272.729 71.3905 272.099 69.0605C272.099 69.0605 275.519 69.8705 278.929 69.3305C282.349 68.7905 289.359 66.9905 292.509 71.9405C295.659 76.8905 295.769 79.0604 297.539 80.4004C301.639 83.5204 298.619 85.9404 298.909 89.1204C298.829 90.7104 298.779 93.7204 299.339 96.1204C300.149 99.5404 302.129 102.77 300.959 106.01C299.789 109.25 296.999 115.36 299.159 118.33C301.319 121.3 300.239 125.25 299.699 126.51C299.699 126.51 302.219 124.62 301.949 120.67C301.679 116.71 301.219 114.98 301.769 113.12C302.409 110.97 303.489 109.66 304.329 107.8C304.409 110.59 304.979 113.14 307.079 114.38C311.489 116.99 318.139 113.21 319.579 111.5C321.019 109.79 322.259 107.691 323.609 107.601C323.609 107.601 322.819 105.531 320.599 105.471V105.481Z" fill="#B54C4C"/>
<path d="M272.099 69.0604C270.099 58.9004 280.779 51.9204 289.179 49.1904C282.979 52.1704 276.379 55.8304 273.269 62.2704C272.309 64.3804 271.759 66.7504 272.089 69.0704L272.099 69.0604Z" fill="#A64242"/>
<path d="M272.399 64.4507C275.749 67.3707 280.439 65.6007 284.409 65.6907C288.779 65.6307 293.079 66.8407 295.549 70.7107C296.179 71.7307 296.799 72.9006 297.009 74.0406C296.329 72.8306 295.669 71.5406 294.729 70.5006C292.209 67.5106 288.219 66.2507 284.399 66.2107C281.599 66.0607 278.699 66.7906 275.929 66.2606C274.729 65.9806 272.939 65.4007 272.389 64.4507H272.399Z" fill="#A64242"/>
<path d="M274.639 59.4102C277.079 60.6602 279.739 61.6102 282.479 61.8902C289.689 62.0002 297.199 62.4602 300.479 70.0402C300.999 71.3402 301.459 72.7802 301.519 74.1302C301.019 72.6802 300.579 71.1402 299.779 69.8002C298.099 66.6502 295.049 64.3802 291.649 63.3802C288.669 62.4402 285.519 62.4802 282.439 62.2402C281.249 62.0802 280.019 61.7802 278.879 61.3902C278.059 61.1102 277.249 60.7802 276.459 60.4202C275.829 60.1302 275.209 59.8203 274.609 59.4703C274.569 59.4503 274.609 59.3802 274.649 59.4102H274.639Z" fill="#A64242"/>
<path d="M283.609 54.9106C295.879 53.7306 304.789 64.0606 306.839 75.3506C307.189 77.3306 307.699 79.7406 307.589 81.5706C307.009 78.3106 306.299 75.0506 305.219 71.9206C301.989 61.7506 294.509 54.6106 283.609 54.9106Z" fill="#A64242"/>
<path d="M289.459 51.4902C298.899 51.6802 307.439 58.4103 309.269 67.7703C309.379 68.2903 309.549 69.1103 309.599 69.6403C310.059 72.6303 308.859 67.4902 308.569 66.9902C305.419 57.7902 298.929 52.5402 289.449 51.4902H289.459Z" fill="#A64242"/>
<path d="M309.989 79.8604C309.449 83.6004 309.749 87.8104 312.199 90.8604C313.789 93.0104 315.729 95.0902 316.449 97.7402C316.719 98.8702 316.919 100.52 316.489 101.43C316.489 100.45 316.379 99.4903 316.129 98.5803C315.189 95.4003 312.589 92.7603 310.939 89.9403C309.349 86.9703 309.149 82.8704 309.989 79.8604Z" fill="#A64242"/>
<path d="M302.979 84.7104C303.129 91.4204 305.709 89.9904 308.309 94.5104C308.919 95.6904 309.199 97.0404 309.199 98.3704C309.039 102.12 308.549 106.16 310.309 109.61C310.879 110.77 311.879 111.67 312.859 112.43C311.009 111.73 309.659 109.92 309.009 108.07C307.989 105.17 308.269 102.05 308.579 99.0604C308.609 98.7204 308.639 98.2304 308.619 97.8904C308.549 94.2204 306.489 92.7305 304.189 90.3505C303.139 88.7905 302.699 86.3505 302.969 84.7205L302.979 84.7104Z" fill="#A64242"/>
<path d="M311.869 98.0806C312.979 99.1106 313.529 100.63 313.629 102.12C313.679 103.24 313.419 104.491 314.229 105.411C315.009 106.441 316.379 107.211 316.659 108.601C316.689 108.881 316.759 109.261 316.599 109.471C316.459 108.971 316.319 108.461 315.939 108.081C314.279 106.541 312.669 105.531 313.139 102.921C313.349 100.841 312.829 99.6406 311.859 98.0906L311.869 98.0806Z" fill="#A64242"/>
<path d="M297.509 81.4806C297.509 81.4806 297.06 76.9606 299.59 76.3506C301.99 75.7706 304.2 78.4906 303.33 82.8306C302.39 87.5506 298.069 88.6206 297.509 81.4806Z" fill="#F6AF9A"/>
<path d="M301.33 80.6206C301.28 80.4306 301.08 80.3206 300.89 80.3806C300.86 80.3806 300.5 80.5007 300.14 80.8107C300.37 79.7607 300.85 79.2107 300.88 79.1707C301.01 79.0307 301 78.8007 300.85 78.6707C300.71 78.5407 300.48 78.5507 300.35 78.6907C300.29 78.7507 299.14 80.0607 299.33 82.4707C299.33 82.5107 299.33 82.5507 299.33 82.5907C299.33 82.6507 299.34 82.7106 299.37 82.7706C299.41 83.1006 299.47 83.4507 299.57 83.8207C299.61 83.9607 299.72 84.0607 299.86 84.0807C299.91 84.0807 299.95 84.0807 300 84.0807C300.19 84.0307 300.3 83.8406 300.25 83.6506C300.14 83.2306 300.08 82.8407 300.05 82.4807C300.18 81.3607 301.05 81.0707 301.1 81.0507C301.29 80.9907 301.39 80.8007 301.34 80.6107L301.33 80.6206Z" fill="#EB9D86"/>
<path d="M301.96 230.47L302.84 228.82L291.89 183.44L223.7 174.09L222.47 175.43L301.96 230.47Z" fill="#5569BD"/>
<path d="M222.47 175.43L235.96 218.77V221.22C235.96 221.57 236.21 221.88 236.56 221.94L301.96 233.88V230.46L290.81 184.96L222.47 175.43Z" fill="#3A4B82"/>
<path d="M301.96 230.47C301.96 230.47 301.57 228.87 300.93 226.28C254.71 215.62 244.07 185.11 242.22 178.2L222.47 175.44L235.96 218.78V221.23C235.96 221.58 236.21 221.89 236.56 221.95L301.96 233.89V230.47Z" fill="#364780"/>
<path d="M236.45 221.92L301.96 233.88V230.46L235.96 218.77V221.33C235.96 221.62 236.17 221.87 236.45 221.92Z" fill="#2F4078"/>
</svg>
